<?xml version="1.0" encoding="UTF-8" standalone="no"?>
<!-- Created with Inkscape (http://www.inkscape.org/) -->

<svg
   xmlns:dc="http://purl.org/dc/elements/1.1/"
   xmlns:cc="http://creativecommons.org/ns#"
   xmlns:rdf="http://www.w3.org/1999/02/22-rdf-syntax-ns#"
   xmlns:svg="http://www.w3.org/2000/svg"
   xmlns="http://www.w3.org/2000/svg"
   xmlns:sodipodi="http://sodipodi.sourceforge.net/DTD/sodipodi-0.dtd"
   xmlns:inkscape="http://www.inkscape.org/namespaces/inkscape"
   width="81.400429mm"
   height="70.640648mm"
   viewBox="0 0 81.400429 70.640648"
   version="1.1"
   id="svg2958"
   inkscape:version="0.92.4 (5da689c313, 2019-01-14)"
   sodipodi:docname="Figure 6.svg">
  <defs
     id="defs2952">
    <clipPath
       id="p34e1d54a10">
      <rect
         height="217.44"
         width="334.79999"
         x="54"
         y="34.560001"
         id="rect486" />
    </clipPath>
  </defs>
  <sodipodi:namedview
     id="base"
     pagecolor="#ffffff"
     bordercolor="#666666"
     borderopacity="1.0"
     inkscape:pageopacity="0.0"
     inkscape:pageshadow="2"
     inkscape:zoom="0.98994949"
     inkscape:cx="118.77518"
     inkscape:cy="86.90225"
     inkscape:document-units="mm"
     inkscape:current-layer="layer1"
     showgrid="false"
     inkscape:window-width="1366"
     inkscape:window-height="705"
     inkscape:window-x="-8"
     inkscape:window-y="-8"
     inkscape:window-maximized="1"
     fit-margin-top="2"
     fit-margin-right="2"
     fit-margin-bottom="2"
     fit-margin-left="2" />
  <metadata
     id="metadata2955">
    <rdf:RDF>
      <cc:Work
         rdf:about="">
        <dc:format>image/svg+xml</dc:format>
        <dc:type
           rdf:resource="http://purl.org/dc/dcmitype/StillImage" />
        <dc:title></dc:title>
      </cc:Work>
    </rdf:RDF>
  </metadata>
  <g
     inkscape:label="Capa 1"
     inkscape:groupmode="layer"
     id="layer1"
     transform="translate(-7.6807332,-9.191583)">
    <g
       id="g1354">
      <path
         d="M 18.464948,58.625309 H 86.953312 V 14.144695 H 18.464948 Z"
         style="fill:#eaeaf2;stroke-width:0.204565;stroke-linecap:butt;stroke-linejoin:round"
         id="path9"
         inkscape:connector-curvature="0" />
      <path
         style="fill:#000000;stroke-width:0.0245478;stroke-linecap:butt;stroke-linejoin:round"
         inkscape:connector-curvature="0"
         id="use239"
         d="m 50.569637,11.191583 h 0.220546 v 1.865249 h -0.220546 z" />
      <path
         style="fill:#000000;stroke-width:0.0245478;stroke-linecap:butt;stroke-linejoin:round"
         inkscape:connector-curvature="0"
         id="use241"
         d="m 51.771759,11.868948 q -0.177204,0 -0.280385,0.138465 -0.103176,0.138465 -0.103176,0.379341 0,0.240875 0.102411,0.37934 0.102792,0.138465 0.28115,0.138465 0.176434,0 0.27923,-0.138849 0.103177,-0.139232 0.103177,-0.378956 0,-0.238574 -0.103177,-0.37819 -0.102796,-0.139616 -0.27923,-0.139616 z m 0,-0.186793 q 0.287669,0 0.45183,0.187177 0.164547,0.186793 0.164547,0.517422 0,0.329477 -0.164547,0.517421 -0.164161,0.187561 -0.45183,0.187561 -0.288823,0 -0.4526,-0.187561 -0.163396,-0.187944 -0.163396,-0.517421 0,-0.330629 0.163396,-0.517422 0.163777,-0.187177 0.4526,-0.187177 z" />
      <path
         style="fill:#000000;stroke-width:0.0245478;stroke-linecap:butt;stroke-linejoin:round"
         inkscape:connector-curvature="0"
         id="use243"
         d="m 53.609248,11.753881 v 0.208656 q -0.0932,-0.04794 -0.194081,-0.07173 -0.100496,-0.02416 -0.208658,-0.02416 -0.164165,0 -0.246246,0.05025 -0.08208,0.05025 -0.08208,0.151123 0,0.07671 0.05868,0.120437 0.05869,0.04373 0.236273,0.08323 l 0.07556,0.01688 q 0.234738,0.05025 0.333696,0.141917 0.09896,0.09167 0.09896,0.255834 0,0.187177 -0.148053,0.296492 -0.148054,0.108931 -0.406954,0.108931 -0.107784,0 -0.224769,-0.0211 -0.116985,-0.0211 -0.246243,-0.0629 v -0.227834 q 0.122354,0.06367 0.240874,0.09551 0.118519,0.03145 0.235122,0.03145 0.155724,0 0.239339,-0.05331 0.084,-0.05331 0.084,-0.150355 0,-0.08975 -0.0606,-0.137698 -0.06022,-0.04795 -0.265423,-0.09244 l -0.07671,-0.01803 q -0.204822,-0.04296 -0.296107,-0.132328 -0.09091,-0.08937 -0.09091,-0.245094 0,-0.189479 0.134247,-0.292272 0.134246,-0.103178 0.381261,-0.103178 0.121969,0 0.22975,0.01803 0.108165,0.01764 0.199069,0.0537 z" />
      <path
         style="fill:#000000;stroke-width:0.0245478;stroke-linecap:butt;stroke-linejoin:round"
         inkscape:connector-curvature="0"
         id="use245"
         d="m 54.888176,11.753881 v 0.208656 q -0.0932,-0.04794 -0.19408,-0.07173 -0.100493,-0.02416 -0.208658,-0.02416 -0.164161,0 -0.246242,0.05025 -0.08208,0.05025 -0.08208,0.151123 0,0.07671 0.05869,0.120437 0.05868,0.04373 0.236269,0.08323 l 0.07556,0.01688 q 0.234739,0.05025 0.333696,0.141917 0.09896,0.09167 0.09896,0.255834 0,0.187177 -0.148054,0.296492 -0.148053,0.108931 -0.406953,0.108931 -0.107781,0 -0.224766,-0.0211 -0.116988,-0.0211 -0.246246,-0.0629 v -0.227834 q 0.122354,0.06367 0.240877,0.09551 0.118519,0.03145 0.235119,0.03145 0.155727,0 0.239342,-0.05331 0.084,-0.05331 0.084,-0.150355 0,-0.08975 -0.0606,-0.137698 -0.06022,-0.04795 -0.265423,-0.09244 l -0.07671,-0.01803 q -0.204819,-0.04296 -0.296107,-0.132328 -0.0909,-0.08937 -0.0909,-0.245094 0,-0.189479 0.134246,-0.292272 0.134246,-0.103178 0.381257,-0.103178 0.121973,0 0.229754,0.01803 0.108162,0.01764 0.199065,0.0537 z" />
      <path
         transform="matrix(0.20456501,0,0,0.20456501,7.4184384,7.0749289)"
         clip-path="url(#p34e1d54a10)"
         d="M 54,242.11677 H 388.8"
         style="fill:none;stroke:#ffffff;stroke-linecap:round;stroke-linejoin:round"
         id="path251"
         inkscape:connector-curvature="0" />
      <path
         style="fill:#000000;stroke-width:0.02250215;stroke-linecap:butt;stroke-linejoin:round"
         inkscape:connector-curvature="0"
         id="use258"
         d="m 13.658181,55.964169 q -0.171228,0 -0.257722,0.168765 -0.08614,0.168416 -0.08614,0.507002 0,0.337181 0.08614,0.505947 0.08649,0.168768 0.257722,0.168768 0.172632,0 0.258777,-0.168768 0.08649,-0.168766 0.08649,-0.505947 0,-0.338586 -0.08649,-0.507002 -0.08615,-0.168765 -0.258777,-0.168765 z m 0,-0.175796 q 0.276003,0 0.421563,0.218341 0.145563,0.217988 0.145563,0.633222 0,0.414182 -0.145563,0.632523 -0.14556,0.217989 -0.421563,0.217989 -0.27565,0 -0.421213,-0.217989 -0.14556,-0.218341 -0.14556,-0.632523 0,-0.415234 0.14556,-0.633222 0.145563,-0.218341 0.421213,-0.218341 z" />
      <path
         style="fill:#000000;stroke-width:0.02250215;stroke-linecap:butt;stroke-linejoin:round"
         inkscape:connector-curvature="0"
         id="use260"
         d="m 14.615183,57.179284 h 0.232053 v 0.27917 h -0.232053 z" />
      <path
         style="fill:#000000;stroke-width:0.02250215;stroke-linecap:butt;stroke-linejoin:round"
         inkscape:connector-curvature="0"
         id="use262"
         d="m 15.805113,55.964169 q -0.171225,0 -0.257719,0.168765 -0.08614,0.168416 -0.08614,0.507002 0,0.337181 0.08614,0.505947 0.08649,0.168768 0.257719,0.168768 0.172635,0 0.258776,-0.168768 0.08649,-0.168766 0.08649,-0.505947 0,-0.338586 -0.08649,-0.507002 -0.08614,-0.168765 -0.258776,-0.168765 z m 0,-0.175796 q 0.276002,0 0.421565,0.218341 0.14556,0.217988 0.14556,0.633222 0,0.414182 -0.14556,0.632523 -0.145563,0.217989 -0.421565,0.217989 -0.27565,0 -0.42121,-0.217989 -0.14556,-0.218341 -0.14556,-0.632523 0,-0.415234 0.14556,-0.633222 0.14556,-0.218341 0.42121,-0.218341 z" />
      <path
         transform="matrix(0.20456501,0,0,0.20456501,7.4184384,7.0749289)"
         clip-path="url(#p34e1d54a10)"
         d="M 54,197.60917 H 388.8"
         style="fill:none;stroke:#ffffff;stroke-linecap:round;stroke-linejoin:round"
         id="path268"
         inkscape:connector-curvature="0" />
      <path
         style="fill:#000000;stroke-width:0.02250215;stroke-linecap:butt;stroke-linejoin:round"
         inkscape:connector-curvature="0"
         id="use274"
         d="m 13.658181,46.859472 q -0.171228,0 -0.257722,0.168765 -0.08614,0.168416 -0.08614,0.507002 0,0.337181 0.08614,0.505947 0.08649,0.168765 0.257722,0.168765 0.172632,0 0.258777,-0.168765 0.08649,-0.168766 0.08649,-0.505947 0,-0.338586 -0.08649,-0.507002 -0.08615,-0.168765 -0.258777,-0.168765 z m 0,-0.175796 q 0.276003,0 0.421563,0.218337 0.145563,0.217992 0.145563,0.633226 0,0.414182 -0.145563,0.632523 -0.14556,0.217989 -0.421563,0.217989 -0.27565,0 -0.421213,-0.217989 -0.14556,-0.218341 -0.14556,-0.632523 0,-0.415234 0.14556,-0.633226 0.145563,-0.218337 0.421213,-0.218337 z" />
      <path
         style="fill:#000000;stroke-width:0.02250215;stroke-linecap:butt;stroke-linejoin:round"
         inkscape:connector-curvature="0"
         id="use276"
         d="m 14.615183,48.074587 h 0.232053 v 0.279167 h -0.232053 z" />
      <path
         style="fill:#000000;stroke-width:0.02250215;stroke-linecap:butt;stroke-linejoin:round"
         inkscape:connector-curvature="0"
         id="use278"
         d="m 15.521726,48.167057 h 0.77457 v 0.186697 h -1.041429 v -0.186697 q 0.126221,-0.130793 0.344213,-0.350891 0.218341,-0.220454 0.274246,-0.284444 0.106531,-0.119539 0.148724,-0.202519 0.04254,-0.08297 0.04254,-0.163139 0,-0.130792 -0.09176,-0.213067 -0.09177,-0.08263 -0.239085,-0.08263 -0.104426,0 -0.220451,0.03622 -0.115676,0.03622 -0.247526,0.110049 v -0.224317 q 0.13396,-0.05379 0.250338,-0.08122 0.116731,-0.02741 0.213416,-0.02741 0.25491,0 0.40645,0.127628 0.151535,0.127279 0.151535,0.340343 0,0.101261 -0.03797,0.191974 -0.03762,0.09036 -0.137826,0.213417 -0.02741,0.032 -0.174742,0.184238 -0.146967,0.152241 -0.415237,0.425781 z" />
      <path
         transform="matrix(0.20456501,0,0,0.20456501,7.4184384,7.0749289)"
         clip-path="url(#p34e1d54a10)"
         d="M 54,153.10157 H 388.8"
         style="fill:none;stroke:#ffffff;stroke-linecap:round;stroke-linejoin:round"
         id="path284"
         inkscape:connector-curvature="0" />
      <path
         style="fill:#000000;stroke-width:0.02250215;stroke-linecap:butt;stroke-linejoin:round"
         inkscape:connector-curvature="0"
         id="use290"
         d="m 13.658181,37.754774 q -0.171228,0 -0.257722,0.168766 -0.08614,0.168414 -0.08614,0.507002 0,0.33718 0.08614,0.505947 0.08649,0.168766 0.257722,0.168766 0.172632,0 0.258777,-0.168766 0.08649,-0.168767 0.08649,-0.505947 0,-0.338588 -0.08649,-0.507002 -0.08615,-0.168766 -0.258777,-0.168766 z m 0,-0.175797 q 0.276003,0 0.421563,0.21834 0.145563,0.217991 0.145563,0.633225 0,0.414181 -0.145563,0.632521 -0.14556,0.217991 -0.421563,0.217991 -0.27565,0 -0.421213,-0.217991 -0.14556,-0.21834 -0.14556,-0.632521 0,-0.415234 0.14556,-0.633225 0.145563,-0.21834 0.421213,-0.21834 z" />
      <path
         style="fill:#000000;stroke-width:0.02250215;stroke-linecap:butt;stroke-linejoin:round"
         inkscape:connector-curvature="0"
         id="use292"
         d="m 14.615183,38.96989 h 0.232053 v 0.279168 h -0.232053 z" />
      <path
         style="fill:#000000;stroke-width:0.02250215;stroke-linecap:butt;stroke-linejoin:round"
         inkscape:connector-curvature="0"
         id="use294"
         d="m 15.940477,37.801889 -0.56044,0.875825 h 0.56044 z m -0.05836,-0.193379 h 0.279168 v 1.069204 h 0.234163 v 0.184589 h -0.234163 v 0.386755 h -0.220804 v -0.386755 h -0.740459 v -0.214122 z" />
      <path
         transform="matrix(0.20456501,0,0,0.20456501,7.4184384,7.0749289)"
         clip-path="url(#p34e1d54a10)"
         d="M 54,108.59397 H 388.8"
         style="fill:none;stroke:#ffffff;stroke-linecap:round;stroke-linejoin:round"
         id="path300"
         inkscape:connector-curvature="0" />
      <path
         style="fill:#000000;stroke-width:0.02250215;stroke-linecap:butt;stroke-linejoin:round"
         inkscape:connector-curvature="0"
         id="use306"
         d="m 13.658181,28.650077 q -0.171228,0 -0.257722,0.168766 -0.08614,0.168415 -0.08614,0.507002 0,0.337181 0.08614,0.505947 0.08649,0.168766 0.257722,0.168766 0.172632,0 0.258777,-0.168766 0.08649,-0.168766 0.08649,-0.505947 0,-0.338587 -0.08649,-0.507002 -0.08615,-0.168766 -0.258777,-0.168766 z m 0,-0.175798 q 0.276003,0 0.421563,0.218341 0.145563,0.21799 0.145563,0.633225 0,0.41418 -0.145563,0.632521 -0.14556,0.21799 -0.421563,0.21799 -0.27565,0 -0.421213,-0.21799 -0.14556,-0.218341 -0.14556,-0.632521 0,-0.415235 0.14556,-0.633225 0.145563,-0.218341 0.421213,-0.218341 z" />
      <path
         style="fill:#000000;stroke-width:0.02250215;stroke-linecap:butt;stroke-linejoin:round"
         inkscape:connector-curvature="0"
         id="use308"
         d="m 14.615183,29.865193 h 0.232053 v 0.279168 h -0.232053 z" />
      <path
         style="fill:#000000;stroke-width:0.02250215;stroke-linecap:butt;stroke-linejoin:round"
         inkscape:connector-curvature="0"
         id="use310"
         d="m 15.83289,29.235836 q -0.149426,0 -0.236975,0.102315 -0.0872,0.101963 -0.0872,0.27987 0,0.176853 0.0872,0.279871 0.08755,0.102666 0.236975,0.102666 0.14943,0 0.236622,-0.102666 0.0872,-0.103018 0.0872,-0.279871 0,-0.177907 -0.0872,-0.27987 -0.08719,-0.102315 -0.236622,-0.102315 z m 0.440549,-0.695808 v 0.202168 q -0.08368,-0.03938 -0.168765,-0.06012 -0.08509,-0.0211 -0.168766,-0.0211 -0.219748,0 -0.335773,0.148373 -0.115676,0.148374 -0.1322,0.448285 0.06469,-0.09563 0.162436,-0.146615 0.0981,-0.05098 0.21553,-0.05098 0.24717,0 0.390623,0.150132 0.143451,0.14978 0.143451,0.407851 0,0.252798 -0.14943,0.405742 -0.14943,0.152593 -0.397655,0.152593 -0.28479,0 -0.435275,-0.21799 -0.150484,-0.218341 -0.150484,-0.632521 0,-0.388865 0.184587,-0.620216 0.184591,-0.23135 0.495399,-0.23135 0.08368,0 0.168769,0.01652 0.08509,0.01652 0.177553,0.04922 z" />
      <path
         transform="matrix(0.20456501,0,0,0.20456501,7.4184384,7.0749289)"
         clip-path="url(#p34e1d54a10)"
         d="M 54,64.086367 H 388.8"
         style="fill:none;stroke:#ffffff;stroke-linecap:round;stroke-linejoin:round"
         id="path316"
         inkscape:connector-curvature="0" />
      <path
         style="fill:#000000;stroke-width:0.02250215;stroke-linecap:butt;stroke-linejoin:round"
         inkscape:connector-curvature="0"
         id="use322"
         d="m 13.658181,19.545379 q -0.171228,0 -0.257722,0.168766 -0.08614,0.168415 -0.08614,0.507002 0,0.337181 0.08614,0.505947 0.08649,0.168766 0.257722,0.168766 0.172632,0 0.258777,-0.168766 0.08649,-0.168766 0.08649,-0.505947 0,-0.338587 -0.08649,-0.507002 -0.08615,-0.168766 -0.258777,-0.168766 z m 0,-0.175798 q 0.276003,0 0.421563,0.218342 0.145563,0.217989 0.145563,0.633224 0,0.41418 -0.145563,0.632521 -0.14556,0.21799 -0.421563,0.21799 -0.27565,0 -0.421213,-0.21799 -0.14556,-0.218341 -0.14556,-0.632521 0,-0.415235 0.14556,-0.633224 0.145563,-0.218342 0.421213,-0.218342 z" />
      <path
         style="fill:#000000;stroke-width:0.02250215;stroke-linecap:butt;stroke-linejoin:round"
         inkscape:connector-curvature="0"
         id="use324"
         d="m 14.615183,20.760496 h 0.232053 v 0.279167 h -0.232053 z" />
      <path
         style="fill:#000000;stroke-width:0.02250215;stroke-linecap:butt;stroke-linejoin:round"
         inkscape:connector-curvature="0"
         id="use326"
         d="m 15.805113,20.260526 q -0.158214,0 -0.248928,0.08474 -0.09036,0.08473 -0.09036,0.232756 0,0.148374 0.09036,0.233108 0.09071,0.08473 0.248928,0.08473 0.15822,0 0.249283,-0.08509 0.09141,-0.08544 0.09141,-0.232757 0,-0.148022 -0.09071,-0.232756 -0.09036,-0.08474 -0.249988,-0.08474 z m -0.221855,-0.09423 q -0.142748,-0.03516 -0.222561,-0.132903 -0.07946,-0.0981 -0.07946,-0.238734 0,-0.196542 0.139932,-0.310811 0.14029,-0.114269 0.383943,-0.114269 0.245064,0 0.384647,0.114269 0.139584,0.114269 0.139584,0.310811 0,0.140638 -0.07981,0.238734 -0.07946,0.09774 -0.221152,0.132903 0.160326,0.03727 0.249632,0.146264 0.08966,0.108644 0.08966,0.265455 0,0.238734 -0.14556,0.366363 -0.145559,0.127278 -0.416993,0.127278 -0.271078,0 -0.416991,-0.127278 -0.145563,-0.127629 -0.145563,-0.366363 0,-0.156811 0.09001,-0.265455 0.09036,-0.108995 0.250688,-0.146264 z m -0.08122,-0.350541 q 0,0.127278 0.07946,0.198652 0.07981,0.07137 0.223612,0.07137 0.143104,0 0.223618,-0.07137 0.08086,-0.07137 0.08086,-0.198652 0,-0.12763 -0.08086,-0.199004 -0.08051,-0.07137 -0.223618,-0.07137 -0.1438,0 -0.223612,0.07137 -0.07946,0.07137 -0.07946,0.199004 z" />
      <path
         style="fill:#000000;stroke-width:0.0245478;stroke-linecap:butt;stroke-linejoin:round"
         inkscape:connector-curvature="0"
         id="use332"
         d="M 10.407196,41.047551 H 9.6807352 v -0.220548 h 1.8652488 v 0.220548 h -0.201369 q 0.119669,0.06943 0.177973,0.17567 0.0583,0.105862 0.0583,0.254683 0,0.243177 -0.194081,0.396218 -0.194465,0.152657 -0.510899,0.152657 -0.316439,0 -0.510519,-0.152657 -0.194081,-0.153041 -0.194081,-0.396218 0,-0.148821 0.0583,-0.254683 0.05792,-0.106245 0.177588,-0.17567 z m 0.468712,0.751391 q 0.243173,0 0.381638,-0.100108 0.138469,-0.100108 0.138469,-0.275011 0,-0.174905 -0.138469,-0.275395 -0.138465,-0.100877 -0.381638,-0.100877 -0.243181,0 -0.381643,0.100877 -0.138465,0.10049 -0.138465,0.275395 0,0.174903 0.138465,0.275011 0.138462,0.100108 0.381643,0.100108 z" />
      <path
         style="fill:#000000;stroke-width:0.0245478;stroke-linecap:butt;stroke-linejoin:round"
         inkscape:connector-curvature="0"
         id="use334"
         d="m 10.203527,40.372678 v -0.220547 h 1.342457 v 0.220547 z m -0.5227918,0 v -0.220547 h 0.2796152 v 0.220547 z" />
      <path
         style="fill:#000000;stroke-width:0.0245478;stroke-linecap:butt;stroke-linejoin:round"
         inkscape:connector-curvature="0"
         id="use336"
         d="m 10.254923,38.724475 h 0.206354 q -0.05178,0.09359 -0.07748,0.18756 -0.02572,0.09397 -0.02572,0.189863 0,0.214793 0.136165,0.333697 0.13578,0.118519 0.381642,0.118519 0.245861,0 0.382026,-0.118519 0.135778,-0.118904 0.135778,-0.333697 0,-0.09589 -0.02572,-0.189863 -0.02568,-0.09397 -0.07748,-0.18756 h 0.204054 q 0.04296,0.09244 0.06444,0.191396 0.02187,0.09857 0.02187,0.21019 0,0.303397 -0.190627,0.482135 -0.19063,0.178354 -0.514353,0.178354 -0.328327,0 -0.516273,-0.180272 -0.188327,-0.180656 -0.188327,-0.494792 0,-0.101642 0.0211,-0.198684 0.02071,-0.09704 0.06252,-0.188327 z" />
      <path
         style="fill:#000000;stroke-width:0.0245478;stroke-linecap:butt;stroke-linejoin:round"
         inkscape:connector-curvature="0"
         id="use338"
         d="m 10.819523,37.192635 h 0.107781 v 1.014132 q 0.227834,-0.01457 0.347119,-0.137315 0.119288,-0.122739 0.119288,-0.342135 0,-0.126959 -0.03108,-0.246246 -0.03108,-0.119286 -0.09359,-0.237039 h 0.208658 q 0.05025,0.118903 0.07671,0.24356 0.02646,0.124657 0.02646,0.252766 0,0.321423 -0.186792,0.508983 -0.187177,0.187561 -0.5063,0.187561 -0.329476,0 -0.522788,-0.177972 -0.1937,-0.177971 -0.1937,-0.480216 0,-0.270793 0.17452,-0.428436 0.174138,-0.157643 0.473695,-0.157643 z m -0.06482,0.220546 q -0.180654,0.0023 -0.288435,0.10126 -0.108165,0.09896 -0.108165,0.261972 0,0.184491 0.104331,0.295341 0.104327,0.110847 0.293804,0.127724 z" />
      <path
         style="fill:#000000;stroke-width:0.0245478;stroke-linecap:butt;stroke-linejoin:round"
         inkscape:connector-curvature="0"
         id="use340"
         d="m 11.953711,35.810478 h 0.171065 v 1.275719 h -0.171065 z" />
      <path
         style="fill:#000000;stroke-width:0.0245478;stroke-linecap:butt;stroke-linejoin:round"
         inkscape:connector-curvature="0"
         id="use342"
         d="m 10.254923,34.63717 h 0.206354 q -0.05178,0.09359 -0.07748,0.187561 -0.02572,0.09397 -0.02572,0.189862 0,0.214793 0.136165,0.333697 0.13578,0.118519 0.381642,0.118519 0.245861,0 0.382026,-0.118519 0.135778,-0.118904 0.135778,-0.333697 0,-0.09589 -0.02572,-0.189862 -0.02568,-0.09397 -0.07748,-0.187561 h 0.204054 q 0.04296,0.09244 0.06444,0.191396 0.02187,0.09857 0.02187,0.210191 0,0.303396 -0.190627,0.482134 -0.19063,0.178355 -0.514353,0.178355 -0.328327,0 -0.516273,-0.180273 -0.188327,-0.180656 -0.188327,-0.494791 0,-0.101643 0.0211,-0.198684 0.02071,-0.09704 0.06252,-0.188328 z" />
      <path
         style="fill:#000000;stroke-width:0.0245478;stroke-linecap:butt;stroke-linejoin:round"
         inkscape:connector-curvature="0"
         id="use344"
         d="m 10.3581,33.7336 q 0,0.177205 0.138466,0.280382 0.138465,0.103178 0.379342,0.103178 0.240876,0 0.379338,-0.102411 0.138465,-0.102793 0.138465,-0.281149 0,-0.176437 -0.13885,-0.279231 -0.13923,-0.103177 -0.378953,-0.103177 -0.238574,0 -0.378189,0.103177 Q 10.3581,33.557163 10.3581,33.7336 Z m -0.186792,0 q 0,-0.287669 0.187177,-0.451833 0.186792,-0.164546 0.517423,-0.164546 0.329476,0 0.517419,0.164546 0.187561,0.164164 0.187561,0.451833 0,0.28882 -0.187561,0.4526 -0.187943,0.163397 -0.517419,0.163397 -0.330631,0 -0.517423,-0.163397 -0.187177,-0.16378 -0.187177,-0.4526 z" />
      <path
         style="fill:#000000;stroke-width:0.0245478;stroke-linecap:butt;stroke-linejoin:round"
         inkscape:connector-curvature="0"
         id="use346"
         d="m 10.819523,31.603455 h 0.107781 v 1.014131 q 0.227834,-0.01458 0.347119,-0.137314 0.119288,-0.122739 0.119288,-0.342135 0,-0.126958 -0.03108,-0.246245 -0.03108,-0.119287 -0.09359,-0.23704 h 0.208658 q 0.05025,0.118904 0.07671,0.243561 0.02646,0.124656 0.02646,0.252765 0,0.321423 -0.186792,0.508983 -0.187177,0.187561 -0.5063,0.187561 -0.329476,0 -0.522788,-0.177971 -0.1937,-0.177972 -0.1937,-0.480217 0,-0.270793 0.17452,-0.428436 0.174138,-0.157643 0.473695,-0.157643 z m -0.06482,0.220547 q -0.180654,0.0023 -0.288435,0.10126 -0.108165,0.09896 -0.108165,0.261971 0,0.184492 0.104331,0.29534 0.104327,0.110849 0.293804,0.127726 z" />
      <path
         style="fill:#000000;stroke-width:0.0245478;stroke-linecap:butt;stroke-linejoin:round"
         inkscape:connector-curvature="0"
         id="use348"
         d="m 9.6807352,30.5619 h 0.1837232 v 0.210957 q 0,0.11852 0.047946,0.164931 0.047946,0.04603 0.1725996,0.04603 h 0.118523 v -0.363231 h 0.17145 v 0.363231 h 1.171007 v 0.221698 h -1.171007 v 0.210957 h -0.17145 v -0.210957 h -0.09359 q -0.224,0 -0.3264114,-0.104328 -0.1027924,-0.104329 -0.1027924,-0.330629 z" />
      <path
         transform="matrix(0.20456501,0,0,0.20456501,7.4184384,7.0749289)"
         clip-path="url(#p34e1d54a10)"
         d="m 328.536,242.10356 h 53.568 v -0.004 h -53.568 z"
         style="fill:#857aab;stroke:#000000;stroke-width:1.5;stroke-linecap:butt;stroke-linejoin:miter;stroke-opacity:1"
         id="path366"
         inkscape:connector-curvature="0" />
      <path
         style="fill:#000000;stroke-width:0.02250215;stroke-linecap:butt;stroke-linejoin:round"
         inkscape:connector-curvature="0"
         id="use217"
         d="m 53.407695,69.694269 h -0.665921 v -0.20217 h 1.709812 v 0.20217 h -0.184588 q 0.109696,0.06364 0.163139,0.161029 0.05344,0.09704 0.05344,0.233461 0,0.22291 -0.177906,0.363199 -0.178262,0.139933 -0.468326,0.139933 -0.290068,0 -0.467974,-0.139933 -0.17791,-0.140289 -0.17791,-0.363199 0,-0.136419 0.05344,-0.233461 0.05309,-0.09739 0.162789,-0.161029 z m 0.429652,0.688774 q 0.222909,0 0.349839,-0.09176 0.126926,-0.09177 0.126926,-0.252095 0,-0.16033 -0.126926,-0.252447 -0.12693,-0.09247 -0.349839,-0.09247 -0.222914,0 -0.34984,0.09247 -0.126925,0.09212 -0.126925,0.252447 0,0.160327 0.126925,0.252095 0.126926,0.09176 0.34984,0.09176 z" />
      <path
         style="fill:#000000;stroke-width:0.02250215;stroke-linecap:butt;stroke-linejoin:round"
         inkscape:connector-curvature="0"
         id="use219"
         d="m 53.220998,69.075634 v -0.202166 h 1.230588 v 0.202166 z m -0.479224,0 v -0.202166 h 0.256314 v 0.202166 z" />
      <path
         style="fill:#000000;stroke-width:0.02250215;stroke-linecap:butt;stroke-linejoin:round"
         inkscape:connector-curvature="0"
         id="use221"
         d="m 53.268111,67.564779 h 0.18916 q -0.04747,0.08579 -0.07102,0.171933 -0.02357,0.08614 -0.02357,0.17404 0,0.196892 0.124816,0.30589 0.124467,0.108641 0.34984,0.108641 0.225372,0 0.350188,-0.108641 0.124467,-0.108998 0.124467,-0.30589 0,-0.0879 -0.02357,-0.17404 -0.02356,-0.08614 -0.07102,-0.171933 h 0.18705 q 0.03938,0.08474 0.05907,0.175447 0.02004,0.09036 0.02004,0.192676 0,0.278113 -0.174741,0.441957 -0.174745,0.163491 -0.471495,0.163491 -0.300965,0 -0.473244,-0.165248 -0.172635,-0.165604 -0.172635,-0.453559 0,-0.09318 0.01933,-0.182129 0.01898,-0.08895 0.05731,-0.172635 z" />
      <path
         style="fill:#000000;stroke-width:0.02250215;stroke-linecap:butt;stroke-linejoin:round"
         inkscape:connector-curvature="0"
         id="use223"
         d="m 53.785661,66.160596 h 0.0988 v 0.929619 q 0.208848,-0.01337 0.318195,-0.125871 0.109347,-0.112511 0.109347,-0.313626 0,-0.116378 -0.02847,-0.225722 -0.02847,-0.109347 -0.08579,-0.217286 h 0.191269 q 0.04606,0.108994 0.07032,0.223262 0.02427,0.114269 0.02427,0.231701 0,0.294637 -0.171224,0.466566 -0.171581,0.171934 -0.464107,0.171934 -0.302024,0 -0.479228,-0.163142 -0.177556,-0.163139 -0.177556,-0.440196 0,-0.248229 0.159977,-0.392734 0.159622,-0.144505 0.43422,-0.144505 z m -0.05942,0.202167 q -0.165601,0.0021 -0.2644,0.09282 -0.09915,0.09071 -0.09915,0.240135 0,0.169119 0.09564,0.270733 0.09563,0.10161 0.269321,0.11708 z" />
      <path
         style="fill:#000000;stroke-width:0.02250215;stroke-linecap:butt;stroke-linejoin:round"
         inkscape:connector-curvature="0"
         id="use225"
         d="m 54.825333,64.893616 h 0.156809 v 1.169409 h -0.156809 z" />
      <path
         style="fill:#000000;stroke-width:0.02250215;stroke-linecap:butt;stroke-linejoin:round"
         inkscape:connector-curvature="0"
         id="use227"
         d="m 52.741774,64.703758 v -0.20217 h 1.709812 v 0.20217 z" />
      <path
         style="fill:#000000;stroke-width:0.02250215;stroke-linecap:butt;stroke-linejoin:round"
         inkscape:connector-curvature="0"
         id="use229"
         d="m 53.362691,63.601811 q 0,0.162437 0.126926,0.257016 0.126926,0.09458 0.34773,0.09458 0.220803,0 0.347729,-0.09388 0.126926,-0.09423 0.126926,-0.257718 0,-0.161735 -0.127279,-0.255961 -0.127631,-0.09458 -0.347376,-0.09458 -0.218694,0 -0.346675,0.09458 -0.127981,0.09423 -0.127981,0.255961 z m -0.171228,0 q 0,-0.263698 0.171581,-0.414182 0.171228,-0.150834 0.474303,-0.150834 0.30202,0 0.474302,0.150834 0.17193,0.150484 0.17193,0.414182 0,0.264753 -0.17193,0.414881 -0.172282,0.149782 -0.474302,0.149782 -0.303075,0 -0.474303,-0.149782 -0.171581,-0.150128 -0.171581,-0.414881 z" />
      <path
         style="fill:#000000;stroke-width:0.02250215;stroke-linecap:butt;stroke-linejoin:round"
         inkscape:connector-curvature="0"
         id="use231"
         d="m 53.257214,61.917445 h 0.191269 q -0.04395,0.08544 -0.06575,0.177906 -0.02215,0.09212 -0.02215,0.191269 0,0.150481 0.04606,0.225725 0.04606,0.07524 0.138528,0.07524 0.07032,0 0.110402,-0.05379 0.04008,-0.0538 0.0763,-0.216584 l 0.01545,-0.06927 q 0.04606,-0.215177 0.130091,-0.30589 0.08403,-0.09071 0.234516,-0.09071 0.17158,0 0.271783,0.135714 0.09985,0.135717 0.09985,0.373045 0,0.0988 -0.01933,0.206036 -0.01933,0.107234 -0.05766,0.225725 H 54.19772 q 0.05836,-0.112162 0.08755,-0.220804 0.02882,-0.108645 0.02882,-0.215529 0,-0.142748 -0.04887,-0.219396 -0.04887,-0.077 -0.137823,-0.077 -0.08227,0 -0.126224,0.05555 -0.04395,0.0552 -0.08473,0.243304 l -0.01655,0.07032 q -0.03938,0.187752 -0.121299,0.271431 -0.08192,0.08333 -0.22467,0.08333 -0.17369,0 -0.267917,-0.12306 -0.09458,-0.123056 -0.09458,-0.349486 0,-0.111806 0.01655,-0.210605 0.01619,-0.09915 0.04922,-0.182478 z" />
      <path
         style="fill:#000000;stroke-width:0.02250215;stroke-linecap:butt;stroke-linejoin:round"
         inkscape:connector-curvature="0"
         id="use233"
         d="m 53.257214,60.745091 h 0.191269 q -0.04395,0.08544 -0.06575,0.177909 -0.02215,0.09212 -0.02215,0.191266 0,0.150484 0.04606,0.225724 0.04606,0.07524 0.138528,0.07524 0.07032,0 0.110402,-0.0538 0.04008,-0.05379 0.0763,-0.216584 l 0.01545,-0.06926 q 0.04606,-0.215174 0.130091,-0.305887 0.08403,-0.09071 0.234516,-0.09071 0.17158,0 0.271783,0.135717 0.09985,0.135717 0.09985,0.373041 0,0.0988 -0.01933,0.206036 -0.01933,0.107238 -0.05766,0.225725 H 54.19772 q 0.05836,-0.112158 0.08755,-0.220803 0.02882,-0.108642 0.02882,-0.215526 0,-0.142748 -0.04887,-0.219396 -0.04887,-0.077 -0.137823,-0.077 -0.08227,0 -0.126224,0.05555 -0.04395,0.0552 -0.08473,0.243307 l -0.01655,0.07032 q -0.03938,0.187752 -0.121299,0.271431 -0.08192,0.08333 -0.22467,0.08333 -0.17369,0 -0.267917,-0.12306 -0.09458,-0.123059 -0.09458,-0.349486 0,-0.111806 0.01655,-0.210605 0.01619,-0.09915 0.04922,-0.182481 z" />
      <path
         transform="matrix(0.20456501,0,0,0.20456501,-19.988327,7.0749289)"
         clip-path="url(#p34e1d54a10)"
         d="m 355.32,242.10356 v 0.004"
         style="fill:none;stroke:#000000;stroke-width:1.5;stroke-linecap:round;stroke-linejoin:round;stroke-opacity:1"
         id="path440"
         inkscape:connector-curvature="0" />
      <path
         transform="matrix(0.20456501,0,0,0.20456501,-19.988327,7.0749289)"
         clip-path="url(#p34e1d54a10)"
         d="m 355.32,242.10005 v -2.1e-4"
         style="fill:none;stroke:#000000;stroke-width:1.5;stroke-linecap:round;stroke-linejoin:round;stroke-opacity:1"
         id="path443"
         inkscape:connector-curvature="0" />
      <path
         transform="matrix(0.20456501,0,0,0.20456501,-19.988327,7.0749289)"
         clip-path="url(#p34e1d54a10)"
         d="m 341.928,242.10784 h 26.784"
         style="fill:none;stroke:#000000;stroke-width:1.5;stroke-linecap:round;stroke-linejoin:round;stroke-opacity:1"
         id="path446"
         inkscape:connector-curvature="0" />
      <path
         transform="matrix(0.20456501,0,0,0.20456501,-19.988327,7.0749289)"
         clip-path="url(#p34e1d54a10)"
         d="m 341.928,242.09984 h 26.784"
         style="fill:none;stroke:#000000;stroke-width:1.5;stroke-linecap:round;stroke-linejoin:round;stroke-opacity:1"
         id="path449"
         inkscape:connector-curvature="0" />
      <path
         inkscape:connector-curvature="0"
         style="fill:#4c4c4c;stroke:#000000;stroke-width:0.204565;stroke-linecap:butt;stroke-linejoin:miter;stroke-opacity:1"
         id="use452"
         d="m 52.697712,57.318945 0.433949,-0.723248 -0.433949,-0.723243 -0.433948,0.723243 z" />
      <path
         style="fill:#000000;stroke-width:0.02250215;stroke-linecap:butt;stroke-linejoin:round"
         inkscape:connector-curvature="0"
         id="use23"
         d="m 38.559123,75.609957 h -0.665924 v -0.202166 h 1.709812 v 0.202166 h -0.184588 q 0.1097,0.06364 0.163142,0.161033 0.05344,0.09704 0.05344,0.233461 0,0.222909 -0.177909,0.363199 -0.178258,0.139932 -0.468326,0.139932 -0.290065,0 -0.467971,-0.139932 -0.177909,-0.14029 -0.177909,-0.363199 0,-0.136419 0.05344,-0.233461 0.05309,-0.09739 0.162789,-0.161033 z m 0.429649,0.688777 q 0.222913,0 0.349839,-0.09176 0.126926,-0.09177 0.126926,-0.252095 0,-0.160327 -0.126926,-0.252448 -0.126926,-0.09247 -0.349839,-0.09247 -0.22291,0 -0.349836,0.09247 -0.126926,0.09212 -0.126926,0.252448 0,0.160327 0.126926,0.252095 0.126926,0.09176 0.349836,0.09176 z" />
      <path
         style="fill:#000000;stroke-width:0.02250215;stroke-linecap:butt;stroke-linejoin:round"
         inkscape:connector-curvature="0"
         id="use25"
         d="m 38.372426,74.991326 v -0.20217 h 1.230585 v 0.20217 z m -0.479227,0 v -0.20217 h 0.256314 v 0.20217 z" />
      <path
         style="fill:#000000;stroke-width:0.02250215;stroke-linecap:butt;stroke-linejoin:round"
         inkscape:connector-curvature="0"
         id="use27"
         d="m 38.41954,73.480474 h 0.189156 q -0.04746,0.08579 -0.07102,0.17193 -0.02357,0.08614 -0.02357,0.174039 0,0.196896 0.124816,0.30589 0.124467,0.108642 0.349836,0.108642 0.225376,0 0.350192,-0.108642 0.124467,-0.108994 0.124467,-0.30589 0,-0.0879 -0.02357,-0.174039 -0.02356,-0.08614 -0.07102,-0.17193 h 0.187049 q 0.03938,0.08473 0.05907,0.175443 0.02004,0.09036 0.02004,0.192677 0,0.278112 -0.174745,0.441957 -0.174741,0.163491 -0.471491,0.163491 -0.300965,0 -0.473247,-0.165252 -0.172632,-0.165601 -0.172632,-0.453556 0,-0.09318 0.01933,-0.182128 0.01898,-0.08895 0.05731,-0.172632 z" />
      <path
         style="fill:#000000;stroke-width:0.02250215;stroke-linecap:butt;stroke-linejoin:round"
         inkscape:connector-curvature="0"
         id="use29"
         d="m 38.93709,72.076284 h 0.0988 v 0.929623 q 0.208844,-0.01337 0.318194,-0.125875 0.109347,-0.112508 0.109347,-0.313619 0,-0.116382 -0.02847,-0.225729 -0.02847,-0.109343 -0.08579,-0.217286 h 0.191269 q 0.04606,0.108998 0.07032,0.223266 0.02427,0.114268 0.02427,0.231701 0,0.294636 -0.171228,0.46657 -0.171581,0.171929 -0.464107,0.171929 -0.302021,0 -0.479224,-0.163142 -0.177557,-0.163138 -0.177557,-0.440196 0,-0.248228 0.159974,-0.392733 0.159625,-0.144509 0.434224,-0.144509 z m -0.05942,0.20217 q -0.165601,0.0021 -0.2644,0.09282 -0.09915,0.09071 -0.09915,0.240143 0,0.169118 0.09563,0.270728 0.09563,0.101611 0.269321,0.11708 z" />
      <path
         style="fill:#000000;stroke-width:0.02250215;stroke-linecap:butt;stroke-linejoin:round"
         inkscape:connector-curvature="0"
         id="use31"
         d="m 39.976757,70.809308 h 0.156814 v 1.169409 h -0.156814 z" />
      <path
         style="fill:#000000;stroke-width:0.02250215;stroke-linecap:butt;stroke-linejoin:round"
         inkscape:connector-curvature="0"
         id="use33"
         d="m 38.41954,69.733777 h 0.189156 q -0.04746,0.08579 -0.07102,0.171929 -0.02357,0.08614 -0.02357,0.174043 0,0.196893 0.124816,0.305887 0.124467,0.108641 0.349836,0.108641 0.225376,0 0.350192,-0.108641 0.124467,-0.108994 0.124467,-0.305887 0,-0.0879 -0.02357,-0.174043 -0.02356,-0.08614 -0.07102,-0.171929 h 0.187049 q 0.03938,0.08473 0.05907,0.175447 0.02004,0.09036 0.02004,0.192673 0,0.278112 -0.174745,0.441956 -0.174741,0.163495 -0.471491,0.163495 -0.300965,0 -0.473247,-0.165252 -0.172632,-0.165601 -0.172632,-0.453559 0,-0.09317 0.01933,-0.182129 0.01898,-0.08895 0.05731,-0.172631 z" />
      <path
         style="fill:#000000;stroke-width:0.02250215;stroke-linecap:butt;stroke-linejoin:round"
         inkscape:connector-curvature="0"
         id="use35"
         d="m 38.51412,68.905504 q 0,0.16244 0.126926,0.257016 0.126925,0.09458 0.347726,0.09458 0.220803,0 0.347729,-0.09387 0.126929,-0.09423 0.126929,-0.257722 0,-0.161735 -0.127278,-0.255962 -0.127632,-0.09458 -0.34738,-0.09458 -0.218691,0 -0.346672,0.09458 -0.12798,0.09423 -0.12798,0.255962 z m -0.171228,0 q 0,-0.263698 0.171577,-0.414179 0.171228,-0.150837 0.474303,-0.150837 0.302023,0 0.474306,0.150837 0.171929,0.150481 0.171929,0.414179 0,0.264752 -0.171929,0.414884 -0.172283,0.149779 -0.474306,0.149779 -0.303075,0 -0.474303,-0.149779 -0.171577,-0.150132 -0.171577,-0.414884 z" />
      <path
         style="fill:#000000;stroke-width:0.02250215;stroke-linecap:butt;stroke-linejoin:round"
         inkscape:connector-curvature="0"
         id="use37"
         d="m 38.93709,66.952872 h 0.0988 v 0.929619 q 0.208844,-0.01337 0.318194,-0.125872 0.109347,-0.112511 0.109347,-0.313623 0,-0.116377 -0.02847,-0.225724 -0.02847,-0.109347 -0.08579,-0.217287 h 0.191269 q 0.04606,0.108994 0.07032,0.223263 0.02427,0.114268 0.02427,0.231704 0,0.294637 -0.171228,0.466566 -0.171581,0.171934 -0.464107,0.171934 -0.302021,0 -0.479224,-0.163142 -0.177557,-0.163143 -0.177557,-0.4402 0,-0.248229 0.159974,-0.392733 0.159625,-0.144505 0.434224,-0.144505 z m -0.05942,0.202166 q -0.165601,0.0021 -0.2644,0.09282 -0.09915,0.09071 -0.09915,0.240139 0,0.169118 0.09563,0.270729 0.09563,0.101611 0.269321,0.117083 z" />
      <path
         style="fill:#000000;stroke-width:0.02250215;stroke-linecap:butt;stroke-linejoin:round"
         inkscape:connector-curvature="0"
         id="use39"
         d="m 37.893199,65.99811 h 0.168416 v 0.193379 q 0,0.108645 0.04395,0.151187 0.04395,0.04219 0.158217,0.04219 h 0.108645 v -0.332962 h 0.157163 v 0.332962 h 1.073422 V 66.58809 H 38.52959 v 0.193376 H 38.372427 V 66.58809 h -0.08579 q -0.20533,0 -0.299208,-0.09563 -0.09423,-0.09564 -0.09423,-0.303079 z" />
      <path
         style="fill:#000000;stroke-width:0.02250215;stroke-linecap:butt;stroke-linejoin:round"
         inkscape:connector-curvature="0"
         id="use41"
         d="m 39.976757,64.893704 h 0.156814 v 1.169409 h -0.156814 z" />
      <path
         style="fill:#000000;stroke-width:0.02250215;stroke-linecap:butt;stroke-linejoin:round"
         inkscape:connector-curvature="0"
         id="use43"
         d="m 37.893199,64.703843 v -0.202166 h 1.709812 v 0.202166 z" />
      <path
         style="fill:#000000;stroke-width:0.02250215;stroke-linecap:butt;stroke-linejoin:round"
         inkscape:connector-curvature="0"
         id="use45"
         d="m 38.51412,63.601896 q 0,0.16244 0.126926,0.257016 0.126925,0.09458 0.347726,0.09458 0.220803,0 0.347729,-0.09387 0.126929,-0.09423 0.126929,-0.257721 0,-0.161735 -0.127278,-0.255962 -0.127632,-0.09458 -0.34738,-0.09458 -0.218691,0 -0.346672,0.09458 -0.12798,0.09423 -0.12798,0.255962 z m -0.171228,0 q 0,-0.263698 0.171577,-0.414179 0.171228,-0.150837 0.474303,-0.150837 0.302023,0 0.474306,0.150837 0.171929,0.150481 0.171929,0.414179 0,0.264752 -0.171929,0.414884 -0.172283,0.149782 -0.474306,0.149782 -0.303075,0 -0.474303,-0.149782 -0.171577,-0.150132 -0.171577,-0.414884 z" />
      <path
         style="fill:#000000;stroke-width:0.02250215;stroke-linecap:butt;stroke-linejoin:round"
         inkscape:connector-curvature="0"
         id="use47"
         d="m 38.408639,61.917533 h 0.191269 q -0.04395,0.08544 -0.06575,0.177906 -0.02215,0.09212 -0.02215,0.191266 0,0.150484 0.04606,0.225728 0.04606,0.07524 0.138529,0.07524 0.07032,0 0.110402,-0.05379 0.04008,-0.0538 0.0763,-0.216584 l 0.01545,-0.06927 q 0.04606,-0.215173 0.13009,-0.305887 0.08403,-0.09071 0.234516,-0.09071 0.171577,0 0.271784,0.135717 0.09985,0.135717 0.09985,0.373045 0,0.0988 -0.01933,0.206033 -0.01933,0.107237 -0.05766,0.225728 h -0.208848 q 0.05836,-0.112162 0.08754,-0.220803 0.02882,-0.108645 0.02882,-0.21553 0,-0.142748 -0.04887,-0.219396 -0.04887,-0.077 -0.137823,-0.077 -0.08228,0 -0.126224,0.05556 -0.04395,0.0552 -0.08473,0.243303 l -0.01654,0.07032 q -0.03938,0.187751 -0.121299,0.27143 -0.08192,0.08333 -0.22467,0.08333 -0.17369,0 -0.267917,-0.12306 -0.09458,-0.123059 -0.09458,-0.349486 0,-0.111806 0.01655,-0.210605 0.01619,-0.09915 0.04922,-0.182478 z" />
      <path
         style="fill:#000000;stroke-width:0.02250215;stroke-linecap:butt;stroke-linejoin:round"
         inkscape:connector-curvature="0"
         id="use49"
         d="m 38.408639,60.745179 h 0.191269 q -0.04395,0.08544 -0.06575,0.177906 -0.02215,0.09212 -0.02215,0.191269 0,0.150484 0.04606,0.225725 0.04606,0.07524 0.138529,0.07524 0.07032,0 0.110402,-0.0538 0.04008,-0.0538 0.0763,-0.216584 l 0.01545,-0.06926 q 0.04606,-0.215177 0.13009,-0.30589 0.08403,-0.09071 0.234516,-0.09071 0.171577,0 0.271784,0.135714 0.09985,0.135717 0.09985,0.373044 0,0.0988 -0.01933,0.206037 -0.01933,0.107237 -0.05766,0.225725 h -0.208848 q 0.05836,-0.112159 0.08754,-0.220804 0.02882,-0.108641 0.02882,-0.21553 0,-0.142748 -0.04887,-0.219396 -0.04887,-0.077 -0.137823,-0.077 -0.08228,0 -0.126224,0.05555 -0.04395,0.0552 -0.08473,0.243304 l -0.01654,0.07032 q -0.03938,0.187752 -0.121299,0.271434 -0.08192,0.08333 -0.22467,0.08333 -0.17369,0 -0.267917,-0.123059 -0.09458,-0.123056 -0.09458,-0.349486 0,-0.111806 0.01655,-0.210605 0.01619,-0.09915 0.04922,-0.182478 z" />
      <path
         transform="matrix(0.20456501,0,0,0.20456501,21.118037,7.0749289)"
         clip-path="url(#p34e1d54a10)"
         d="m 60.696,92.471158 h 53.568 V 71.103699 H 60.696 Z"
         style="fill:#5875a4;stroke:#000000;stroke-width:1.5;stroke-linecap:butt;stroke-linejoin:miter;stroke-opacity:1"
         id="path354"
         inkscape:connector-curvature="0" />
      <path
         transform="matrix(0.20456501,0,0,0.20456501,21.118037,7.0749289)"
         clip-path="url(#p34e1d54a10)"
         d="M 87.48,92.471158 V 124.11977"
         style="fill:none;stroke:#000000;stroke-width:1.5;stroke-linecap:round;stroke-linejoin:round;stroke-opacity:1"
         id="path369"
         inkscape:connector-curvature="0" />
      <path
         transform="matrix(0.20456501,0,0,0.20456501,21.118037,7.0749289)"
         clip-path="url(#p34e1d54a10)"
         d="M 87.48,71.103699 V 49.513583"
         style="fill:none;stroke:#000000;stroke-width:1.5;stroke-linecap:round;stroke-linejoin:round;stroke-opacity:1"
         id="path372"
         inkscape:connector-curvature="0" />
      <path
         transform="matrix(0.20456501,0,0,0.20456501,21.118037,7.0749289)"
         clip-path="url(#p34e1d54a10)"
         d="m 74.088,124.11977 h 26.784"
         style="fill:none;stroke:#000000;stroke-width:1.5;stroke-linecap:round;stroke-linejoin:round;stroke-opacity:1"
         id="path375"
         inkscape:connector-curvature="0" />
      <path
         transform="matrix(0.20456501,0,0,0.20456501,21.118037,7.0749289)"
         clip-path="url(#p34e1d54a10)"
         d="m 74.088,49.513583 h 26.784"
         style="fill:none;stroke:#000000;stroke-width:1.5;stroke-linecap:round;stroke-linejoin:round;stroke-opacity:1"
         id="path378"
         inkscape:connector-curvature="0" />
      <path
         transform="matrix(0.20456501,0,0,0.20456501,21.118037,7.0749289)"
         clip-path="url(#p34e1d54a10)"
         d="m 60.696,77.597014 h 53.568"
         style="fill:none;stroke:#000000;stroke-width:1.5;stroke-linecap:round;stroke-linejoin:round;stroke-opacity:1"
         id="path457"
         inkscape:connector-curvature="0" />
      <path
         style="fill:#000000;stroke-width:0.02250215;stroke-linecap:butt;stroke-linejoin:round"
         inkscape:connector-curvature="0"
         id="use78"
         d="m 80.493634,74.008614 h 0.189159 q -0.04747,0.08579 -0.07102,0.17193 -0.02357,0.08614 -0.02357,0.174043 0,0.196892 0.124817,0.305886 0.124467,0.108645 0.349839,0.108645 0.225372,0 0.350188,-0.108645 0.124467,-0.108994 0.124467,-0.305886 0,-0.0879 -0.02356,-0.174043 -0.02357,-0.08614 -0.07102,-0.17193 h 0.18705 q 0.03938,0.08474 0.05907,0.175447 0.02004,0.09036 0.02004,0.192673 0,0.278113 -0.174742,0.441957 -0.174745,0.163494 -0.471491,0.163494 -0.300965,0 -0.473248,-0.165251 -0.172635,-0.165601 -0.172635,-0.45356 0,-0.09317 0.01933,-0.182125 0.01898,-0.08896 0.05731,-0.172635 z" />
      <path
         style="fill:#000000;stroke-width:0.02250215;stroke-linecap:butt;stroke-linejoin:round"
         inkscape:connector-curvature="0"
         id="use80"
         d="m 80.635327,72.944068 q -0.01969,0.03411 -0.02882,0.07419 -0.0095,0.04008 -0.0095,0.08825 0,0.171577 0.111457,0.263345 0.111456,0.09176 0.320304,0.09176 h 0.648342 v 0.203225 h -1.230584 v -0.203225 h 0.191269 q -0.112162,-0.06399 -0.166306,-0.165954 -0.0545,-0.102312 -0.0545,-0.248577 0,-0.02074 0.0028,-0.04606 0.0025,-0.02533 0.0081,-0.05591 z" />
      <path
         style="fill:#000000;stroke-width:0.02250215;stroke-linecap:butt;stroke-linejoin:round"
         inkscape:connector-curvature="0"
         id="use82"
         d="m 80.588213,72.305833 q 0,0.16244 0.126926,0.25702 0.126926,0.09458 0.34773,0.09458 0.2208,0 0.347729,-0.09387 0.126926,-0.09423 0.126926,-0.257722 0,-0.161731 -0.127279,-0.255961 -0.127631,-0.09458 -0.347376,-0.09458 -0.218694,0 -0.346675,0.09458 -0.127981,0.09423 -0.127981,0.255961 z m -0.171227,0 q 0,-0.263694 0.17158,-0.414178 0.171228,-0.150834 0.474303,-0.150834 0.30202,0 0.474302,0.150834 0.17193,0.150484 0.17193,0.414178 0,0.264753 -0.17193,0.414885 -0.172282,0.149782 -0.474302,0.149782 -0.303075,0 -0.474303,-0.149782 -0.17158,-0.150132 -0.17158,-0.414885 z" />
      <path
         style="fill:#000000;stroke-width:0.02250215;stroke-linecap:butt;stroke-linejoin:round"
         inkscape:connector-curvature="0"
         id="use84"
         d="m 80.482733,70.621471 h 0.191269 q -0.04395,0.08544 -0.06575,0.177906 -0.02215,0.09212 -0.02215,0.191269 0,0.150485 0.04606,0.225725 0.04606,0.07524 0.138529,0.07524 0.07032,0 0.110401,-0.05379 0.04008,-0.05379 0.0763,-0.216585 l 0.01549,-0.06926 q 0.04606,-0.215177 0.13009,-0.30589 0.08403,-0.09071 0.234512,-0.09071 0.171581,0 0.271788,0.135717 0.09985,0.135717 0.09985,0.373045 0,0.0988 -0.01933,0.206036 -0.01933,0.107234 -0.05766,0.225725 H 81.42327 q 0.05836,-0.112159 0.08754,-0.220804 0.02882,-0.108645 0.02882,-0.215529 0,-0.142748 -0.04887,-0.219396 -0.04887,-0.077 -0.137823,-0.077 -0.08228,0 -0.126224,0.05555 -0.04395,0.0552 -0.08473,0.243304 l -0.01651,0.07032 q -0.03938,0.187752 -0.121303,0.271435 -0.08192,0.08333 -0.22467,0.08333 -0.173687,0 -0.267914,-0.12306 -0.09458,-0.123059 -0.09458,-0.349486 0,-0.111806 0.01651,-0.210605 0.01616,-0.09915 0.04922,-0.182478 z" />
      <path
         style="fill:#000000;stroke-width:0.02250215;stroke-linecap:butt;stroke-linejoin:round"
         inkscape:connector-curvature="0"
         id="use86"
         d="m 80.482733,69.449117 h 0.191269 q -0.04395,0.08544 -0.06575,0.177909 -0.02215,0.09212 -0.02215,0.191266 0,0.150484 0.04606,0.225724 0.04606,0.07524 0.138529,0.07524 0.07032,0 0.110401,-0.05379 0.04008,-0.0538 0.0763,-0.216584 l 0.01549,-0.06927 q 0.04606,-0.215176 0.13009,-0.30589 0.08403,-0.09071 0.234512,-0.09071 0.171581,0 0.271788,0.135717 0.09985,0.135713 0.09985,0.373041 0,0.0988 -0.01933,0.206036 -0.01933,0.107238 -0.05766,0.225725 H 81.42327 q 0.05836,-0.112158 0.08754,-0.220803 0.02882,-0.108642 0.02882,-0.21553 0,-0.142744 -0.04887,-0.219396 -0.04887,-0.077 -0.137823,-0.077 -0.08228,0 -0.126224,0.05555 -0.04395,0.0552 -0.08473,0.243304 l -0.01651,0.07032 q -0.03938,0.187755 -0.121303,0.271434 -0.08192,0.08333 -0.22467,0.08333 -0.173687,0 -0.267914,-0.123056 -0.09458,-0.123059 -0.09458,-0.34949 0,-0.111806 0.01651,-0.210605 0.01616,-0.09915 0.04922,-0.182477 z" />
      <path
         style="fill:#000000;stroke-width:0.02250215;stroke-linecap:butt;stroke-linejoin:round"
         inkscape:connector-curvature="0"
         id="use88"
         d="m 81.011183,68.008496 h 0.0988 v 0.929618 q 0.208848,-0.01337 0.318195,-0.125871 0.109347,-0.112511 0.109347,-0.313623 0,-0.116377 -0.02847,-0.225724 -0.02847,-0.109347 -0.08579,-0.217287 h 0.191266 q 0.04606,0.108994 0.07032,0.223263 0.02427,0.114271 0.02427,0.231704 0,0.294637 -0.171227,0.466566 -0.171577,0.17193 -0.464108,0.17193 -0.30202,0 -0.479224,-0.163138 -0.177556,-0.163143 -0.177556,-0.4402 0,-0.248225 0.159977,-0.392733 0.159625,-0.144505 0.43422,-0.144505 z m -0.05942,0.202166 q -0.165605,0.0021 -0.2644,0.09282 -0.09915,0.09071 -0.09915,0.240139 0,0.169118 0.09564,0.270729 0.09563,0.101611 0.269321,0.11708 z" />
      <path
         style="fill:#000000;stroke-width:0.02250215;stroke-linecap:butt;stroke-linejoin:round"
         inkscape:connector-curvature="0"
         id="use90"
         d="m 80.934182,66.653617 h 0.742926 v 0.20217 h -0.736244 q -0.174741,0 -0.261235,0.06821 -0.08684,0.06821 -0.08684,0.204279 0,0.163841 0.104423,0.258421 0.104072,0.09458 0.284441,0.09458 h 0.695459 v 0.203225 H 80.44652 v -0.203225 h 0.191269 q -0.111104,-0.07278 -0.165954,-0.170875 -0.05485,-0.09845 -0.05485,-0.227129 0,-0.212015 0.131145,-0.320657 0.131145,-0.108998 0.386051,-0.108998 z" />
      <path
         style="fill:#000000;stroke-width:0.02250215;stroke-linecap:butt;stroke-linejoin:round"
         inkscape:connector-curvature="0"
         id="use92"
         d="m 80.097034,66.050544 h 0.349486 v -0.416289 h 0.157163 v 0.416289 h 0.668034 q 0.150481,0 0.193378,-0.04114 0.0429,-0.04113 0.0429,-0.16771 v -0.207441 h 0.169118 v 0.207441 q 0,0.234163 -0.0872,0.323116 -0.08755,0.08895 -0.318195,0.08895 h -0.668035 v 0.14838 H 80.44652 v -0.148375 h -0.349486 z" />
      <path
         style="fill:#000000;stroke-width:0.02250215;stroke-linecap:butt;stroke-linejoin:round"
         inkscape:connector-curvature="0"
         id="use94"
         d="m 80.635327,64.655279 q -0.01969,0.03411 -0.02882,0.07419 -0.0095,0.04008 -0.0095,0.08825 0,0.171577 0.111457,0.263345 0.111456,0.09177 0.320304,0.09177 h 0.648342 v 0.203221 h -1.230584 v -0.203221 h 0.191269 q -0.112162,-0.06399 -0.166306,-0.165954 -0.0545,-0.102312 -0.0545,-0.248577 0,-0.02074 0.0028,-0.04606 0.0025,-0.02533 0.0081,-0.0559 z" />
      <path
         style="fill:#000000;stroke-width:0.02250215;stroke-linecap:butt;stroke-linejoin:round"
         inkscape:connector-curvature="0"
         id="use96"
         d="m 80.588213,64.017045 q 0,0.162436 0.126926,0.257016 0.126926,0.09458 0.34773,0.09458 0.2208,0 0.347729,-0.09387 0.126926,-0.09423 0.126926,-0.257721 0,-0.161735 -0.127279,-0.255962 -0.127631,-0.09458 -0.347376,-0.09458 -0.218694,0 -0.346675,0.09458 -0.127981,0.09423 -0.127981,0.255962 z m -0.171227,0 q 0,-0.263698 0.17158,-0.414183 0.171228,-0.150833 0.474303,-0.150833 0.30202,0 0.474302,0.150833 0.17193,0.150485 0.17193,0.414183 0,0.264752 -0.17193,0.414884 -0.172282,0.149779 -0.474302,0.149779 -0.303075,0 -0.474303,-0.149779 -0.17158,-0.150132 -0.17158,-0.414884 z" />
      <path
         style="fill:#000000;stroke-width:0.02250215;stroke-linecap:butt;stroke-linejoin:round"
         inkscape:connector-curvature="0"
         id="use98"
         d="m 81.492517,62.921603 h 0.652565 v 0.203224 H 80.44652 v -0.203224 h 0.186697 q -0.109696,-0.06399 -0.162789,-0.161033 -0.05344,-0.09739 -0.05344,-0.232403 0,-0.224317 0.177909,-0.364254 0.177906,-0.140289 0.467974,-0.140289 0.290064,0 0.468326,0.140289 0.177906,0.139937 0.177906,0.364254 0,0.135012 -0.05344,0.232403 -0.05344,0.09704 -0.163142,0.161033 z m -0.429648,-0.688072 q -0.222913,0 -0.349839,0.09176 -0.126926,0.09177 -0.126926,0.252095 0,0.16068 0.126926,0.252448 0.126926,0.09176 0.349839,0.09176 0.222909,0 0.349839,-0.09176 0.126926,-0.09177 0.126926,-0.252448 0,-0.16033 -0.126926,-0.252095 -0.12693,-0.09176 -0.349839,-0.09176 z" />
      <path
         style="fill:#000000;stroke-width:0.02250215;stroke-linecap:butt;stroke-linejoin:round"
         inkscape:connector-curvature="0"
         id="use100"
         d="m 81.791376,61.176806 q 0.219745,0.08544 0.286551,0.167009 0.06715,0.08122 0.06715,0.217286 v 0.161734 h -0.169119 v -0.118836 q 0,-0.08333 -0.03973,-0.129389 -0.03938,-0.04641 -0.186697,-0.102316 l -0.09212,-0.03621 -1.210896,0.497508 V 61.619468 L 81.408838,61.23482 80.44652,60.850176 v -0.214122 z" />
      <path
         transform="matrix(0.20456501,0,0,0.20456501,48.51538,7.0749289)"
         clip-path="url(#p34e1d54a10)"
         d="m 127.656,59.938201 h 53.568 V 48.835393 h -53.568 z"
         style="fill:#cc8963;stroke:#000000;stroke-width:1.5;stroke-linecap:butt;stroke-linejoin:miter;stroke-opacity:1"
         id="path357"
         inkscape:connector-curvature="0" />
      <path
         transform="matrix(0.20456501,0,0,0.20456501,48.51538,7.0749289)"
         clip-path="url(#p34e1d54a10)"
         d="m 154.44,59.938201 v 0.327237"
         style="fill:none;stroke:#000000;stroke-width:1.5;stroke-linecap:round;stroke-linejoin:round;stroke-opacity:1"
         id="path389"
         inkscape:connector-curvature="0" />
      <path
         transform="matrix(0.20456501,0,0,0.20456501,48.51538,7.0749289)"
         clip-path="url(#p34e1d54a10)"
         d="M 154.44,48.835393 V 46.590702"
         style="fill:none;stroke:#000000;stroke-width:1.5;stroke-linecap:round;stroke-linejoin:round;stroke-opacity:1"
         id="path392"
         inkscape:connector-curvature="0" />
      <path
         transform="matrix(0.20456501,0,0,0.20456501,48.51538,7.0749289)"
         clip-path="url(#p34e1d54a10)"
         d="m 141.048,60.265438 h 26.784"
         style="fill:none;stroke:#000000;stroke-width:1.5;stroke-linecap:round;stroke-linejoin:round;stroke-opacity:1"
         id="path395"
         inkscape:connector-curvature="0" />
      <path
         transform="matrix(0.20456501,0,0,0.20456501,48.51538,7.0749289)"
         clip-path="url(#p34e1d54a10)"
         d="m 141.048,46.590702 h 26.784"
         style="fill:none;stroke:#000000;stroke-width:1.5;stroke-linecap:round;stroke-linejoin:round;stroke-opacity:1"
         id="path398"
         inkscape:connector-curvature="0" />
      <path
         inkscape:connector-curvature="0"
         style="fill:#4c4c4c;stroke:#000000;stroke-width:0.204565;stroke-linecap:butt;stroke-linejoin:miter;stroke-opacity:1"
         id="use401"
         d="M 80.1084,25.821277 80.542349,25.098031 80.1084,24.374785 79.674452,25.098031 Z" />
      <path
         transform="matrix(0.20456501,0,0,0.20456501,48.51538,7.0749289)"
         clip-path="url(#p34e1d54a10)"
         d="m 127.656,53.049148 h 53.568"
         style="fill:none;stroke:#000000;stroke-width:1.5;stroke-linecap:round;stroke-linejoin:round;stroke-opacity:1"
         id="path460"
         inkscape:connector-curvature="0" />
      <path
         style="fill:#000000;stroke-width:0.02250215;stroke-linecap:butt;stroke-linejoin:round"
         inkscape:connector-curvature="0"
         id="use141"
         d="m 67.523078,72.35506 h 0.0988 v 0.929619 q 0.208844,-0.01337 0.318195,-0.125871 0.109343,-0.112512 0.109343,-0.313627 0,-0.116378 -0.02847,-0.225721 -0.02847,-0.109347 -0.08579,-0.217287 h 0.191269 q 0.04606,0.108995 0.07032,0.223263 0.02427,0.114268 0.02427,0.231701 0,0.294636 -0.171228,0.466566 -0.171577,0.171933 -0.464108,0.171933 -0.30202,0 -0.479224,-0.163142 -0.177556,-0.163138 -0.177556,-0.440196 0,-0.248228 0.159974,-0.392733 0.159625,-0.144505 0.434224,-0.144505 z m -0.05942,0.202166 q -0.165601,0.0021 -0.2644,0.09282 -0.09915,0.09071 -0.09915,0.240139 0,0.169118 0.09563,0.270732 0.09564,0.101611 0.269325,0.11708 z" />
      <path
         style="fill:#000000;stroke-width:0.02250215;stroke-linecap:butt;stroke-linejoin:round"
         inkscape:connector-curvature="0"
         id="use143"
         d="m 67.446077,71.000182 h 0.742922 v 0.202166 h -0.73624 q -0.174745,0 -0.261236,0.06821 -0.08684,0.06821 -0.08684,0.204279 0,0.163844 0.104422,0.258424 0.10407,0.09458 0.284441,0.09458 h 0.695456 v 0.203221 h -1.230584 v -0.203221 h 0.191269 q -0.111107,-0.07278 -0.165954,-0.170875 -0.05485,-0.09845 -0.05485,-0.227133 0,-0.212012 0.131145,-0.320654 0.131146,-0.108997 0.386052,-0.108997 z" />
      <path
         style="fill:#000000;stroke-width:0.02250215;stroke-linecap:butt;stroke-linejoin:round"
         inkscape:connector-curvature="0"
         id="use145"
         d="m 66.608928,70.397108 h 0.349487 v -0.416292 h 0.157162 v 0.416292 h 0.668031 q 0.150484,0 0.193379,-0.04114 0.04289,-0.04114 0.04289,-0.167711 v -0.207444 h 0.169118 v 0.207444 q 0,0.234163 -0.0872,0.323116 -0.08755,0.08895 -0.318195,0.08895 h -0.668031 v 0.148375 H 66.958407 V 70.600323 H 66.60892 Z" />
      <path
         style="fill:#000000;stroke-width:0.02250215;stroke-linecap:butt;stroke-linejoin:round"
         inkscape:connector-curvature="0"
         id="use147"
         d="m 67.147221,69.00184 q -0.01968,0.03411 -0.02882,0.07419 -0.0095,0.04008 -0.0095,0.08825 0,0.171581 0.111453,0.263345 0.11146,0.09176 0.320308,0.09176 h 0.648342 v 0.203225 h -1.230575 v -0.20322 h 0.191265 q -0.112158,-0.06399 -0.166302,-0.165954 -0.0545,-0.102312 -0.0545,-0.248574 0,-0.02074 0.0028,-0.04606 0.0025,-0.02533 0.0081,-0.05591 z" />
      <path
         style="fill:#000000;stroke-width:0.02250215;stroke-linecap:butt;stroke-linejoin:round"
         inkscape:connector-curvature="0"
         id="use149"
         d="m 67.100108,68.363605 q 0,0.162437 0.126926,0.25702 0.126926,0.09458 0.347726,0.09458 0.220804,0 0.347729,-0.09387 0.126926,-0.09423 0.126926,-0.257722 0,-0.161731 -0.127275,-0.255961 -0.127631,-0.09458 -0.34738,-0.09458 -0.218691,0 -0.346671,0.09458 -0.127981,0.09423 -0.127981,0.255961 z m -0.171228,0 q 0,-0.263694 0.171577,-0.414178 0.171228,-0.150834 0.474303,-0.150834 0.302024,0 0.474306,0.150834 0.17193,0.150484 0.17193,0.414178 0,0.264753 -0.17193,0.414885 -0.172282,0.149778 -0.474306,0.149778 -0.303075,0 -0.474303,-0.149778 -0.171577,-0.150132 -0.171577,-0.414885 z" />
      <path
         style="fill:#000000;stroke-width:0.02250215;stroke-linecap:butt;stroke-linejoin:round"
         inkscape:connector-curvature="0"
         id="use151"
         d="m 68.004412,67.268167 h 0.652564 v 0.203221 h -1.698561 v -0.203221 h 0.186697 q -0.1097,-0.06399 -0.162789,-0.161033 -0.05344,-0.09739 -0.05344,-0.232406 0,-0.224317 0.177906,-0.36425 0.177909,-0.140289 0.467974,-0.140289 0.290068,0 0.468327,0.140289 0.177909,0.139933 0.177909,0.36425 0,0.135015 -0.05344,0.232406 -0.05344,0.09704 -0.163142,0.161033 z M 67.57476,66.580091 q -0.22291,0 -0.349836,0.09177 -0.126926,0.09177 -0.126926,0.252095 0,0.160676 0.126926,0.252444 0.126926,0.09177 0.349836,0.09177 0.222913,0 0.349839,-0.09177 0.126926,-0.09177 0.126926,-0.252444 0,-0.160327 -0.126926,-0.252095 -0.126926,-0.09177 -0.349839,-0.09177 z" />
      <path
         style="fill:#000000;stroke-width:0.02250215;stroke-linecap:butt;stroke-linejoin:round"
         inkscape:connector-curvature="0"
         id="use153"
         d="m 68.303267,65.52337 q 0.219749,0.08544 0.286551,0.167009 0.06716,0.08122 0.06716,0.217286 v 0.161731 h -0.16912 V 65.95056 q 0,-0.08333 -0.03973,-0.129389 -0.03938,-0.04641 -0.1867,-0.102312 l -0.09212,-0.03622 -1.210895,0.497509 v -0.214122 l 0.962318,-0.384644 -0.962318,-0.384648 v -0.214122 z" />
      <path
         style="fill:#000000;stroke-width:0.02250215;stroke-linecap:butt;stroke-linejoin:round"
         inkscape:connector-curvature="0"
         id="use155"
         d="m 66.479187,64.703624 v -0.202166 h 1.709812 v 0.202166 z" />
      <path
         style="fill:#000000;stroke-width:0.02250215;stroke-linecap:butt;stroke-linejoin:round"
         inkscape:connector-curvature="0"
         id="use157"
         d="m 67.100108,63.601677 q 0,0.162436 0.126926,0.257016 0.126926,0.09458 0.347726,0.09458 0.220804,0 0.347729,-0.09387 0.126926,-0.09423 0.126926,-0.257722 0,-0.161735 -0.127275,-0.255962 -0.127631,-0.09458 -0.34738,-0.09458 -0.218691,0 -0.346671,0.09458 -0.127981,0.09423 -0.127981,0.255962 z m -0.171228,0 q 0,-0.263698 0.171577,-0.414182 0.171228,-0.150834 0.474303,-0.150834 0.302024,0 0.474306,0.150834 0.17193,0.150484 0.17193,0.414182 0,0.264753 -0.17193,0.414884 -0.172282,0.149779 -0.474306,0.149779 -0.303075,0 -0.474303,-0.149779 Q 66.92888,63.86643 66.92888,63.601677 Z" />
      <path
         style="fill:#000000;stroke-width:0.02250215;stroke-linecap:butt;stroke-linejoin:round"
         inkscape:connector-curvature="0"
         id="use159"
         d="m 66.994627,61.917315 h 0.19127 q -0.04395,0.08543 -0.06575,0.177906 -0.02215,0.09212 -0.02215,0.191265 0,0.150485 0.04606,0.225729 0.04606,0.07524 0.138528,0.07524 0.07032,0 0.110402,-0.0538 0.04008,-0.05379 0.0763,-0.216585 l 0.01545,-0.06926 q 0.04606,-0.215173 0.13009,-0.305886 0.08403,-0.09071 0.234516,-0.09071 0.171577,0 0.271784,0.135717 0.09985,0.135718 0.09985,0.373045 0,0.0988 -0.01933,0.206033 -0.01933,0.107237 -0.05766,0.225725 h -0.208848 q 0.05837,-0.112159 0.08755,-0.2208 0.02882,-0.108645 0.02882,-0.21553 0,-0.142748 -0.04887,-0.219396 -0.04887,-0.077 -0.137827,-0.077 -0.08227,0 -0.126224,0.05555 -0.04395,0.0552 -0.08473,0.243308 l -0.01654,0.07032 q -0.03938,0.187752 -0.121303,0.271431 -0.08192,0.08333 -0.22467,0.08333 -0.173686,0 -0.267917,-0.123059 -0.09458,-0.12306 -0.09458,-0.349487 0,-0.111805 0.01651,-0.210604 0.01619,-0.09915 0.04923,-0.182478 z" />
      <path
         style="fill:#000000;stroke-width:0.02250215;stroke-linecap:butt;stroke-linejoin:round"
         inkscape:connector-curvature="0"
         id="use161"
         d="m 66.994627,60.74496 h 0.19127 q -0.04395,0.08544 -0.06575,0.177906 -0.02215,0.09212 -0.02215,0.191269 0,0.150484 0.04606,0.225725 0.04606,0.07524 0.138528,0.07524 0.07032,0 0.110402,-0.0538 0.04008,-0.0538 0.0763,-0.216585 l 0.01545,-0.06926 q 0.04606,-0.215177 0.13009,-0.30589 0.08403,-0.09071 0.234516,-0.09071 0.171577,0 0.271784,0.135717 0.09985,0.135717 0.09985,0.373045 0,0.0988 -0.01933,0.206036 -0.01933,0.107234 -0.05766,0.225725 h -0.208848 q 0.05837,-0.112159 0.08755,-0.220804 0.02882,-0.108645 0.02882,-0.215529 0,-0.142748 -0.04887,-0.219396 -0.04887,-0.077 -0.137827,-0.077 -0.08227,0 -0.126224,0.05555 -0.04395,0.0552 -0.08473,0.243304 l -0.01654,0.07032 q -0.03938,0.187752 -0.121303,0.271434 -0.08192,0.08333 -0.22467,0.08333 -0.173686,0 -0.267917,-0.12306 -0.09458,-0.123056 -0.09458,-0.349486 0,-0.111806 0.01651,-0.210605 0.01619,-0.09915 0.04923,-0.182478 z" />
      <path
         transform="matrix(0.20456501,0,0,0.20456501,21.118037,7.0749289)"
         clip-path="url(#p34e1d54a10)"
         d="m 194.616,56.935144 h 53.568 v -5.045972 h -53.568 z"
         style="fill:#5f9e6e;stroke:#000000;stroke-width:1.5;stroke-linecap:butt;stroke-linejoin:miter;stroke-opacity:1"
         id="path360"
         inkscape:connector-curvature="0" />
      <path
         transform="matrix(0.20456501,0,0,0.20456501,21.118037,7.0749289)"
         clip-path="url(#p34e1d54a10)"
         d="M 221.4,56.935144 V 58.04904"
         style="fill:none;stroke:#000000;stroke-width:1.5;stroke-linecap:round;stroke-linejoin:round;stroke-opacity:1"
         id="path406"
         inkscape:connector-curvature="0" />
      <path
         transform="matrix(0.20456501,0,0,0.20456501,21.118037,7.0749289)"
         clip-path="url(#p34e1d54a10)"
         d="M 221.4,51.889172 V 48.198189"
         style="fill:none;stroke:#000000;stroke-width:1.5;stroke-linecap:round;stroke-linejoin:round;stroke-opacity:1"
         id="path409"
         inkscape:connector-curvature="0" />
      <path
         transform="matrix(0.20456501,0,0,0.20456501,21.118037,7.0749289)"
         clip-path="url(#p34e1d54a10)"
         d="m 208.008,58.04904 h 26.784"
         style="fill:none;stroke:#000000;stroke-width:1.5;stroke-linecap:round;stroke-linejoin:round;stroke-opacity:1"
         id="path412"
         inkscape:connector-curvature="0" />
      <path
         transform="matrix(0.20456501,0,0,0.20456501,21.118037,7.0749289)"
         clip-path="url(#p34e1d54a10)"
         d="m 208.008,48.198189 h 26.784"
         style="fill:none;stroke:#000000;stroke-width:1.5;stroke-linecap:round;stroke-linejoin:round;stroke-opacity:1"
         id="path415"
         inkscape:connector-curvature="0" />
      <path
         inkscape:connector-curvature="0"
         style="fill:#4c4c4c;stroke:#000000;stroke-width:0.204565;stroke-linecap:butt;stroke-linejoin:miter;stroke-opacity:1"
         id="use418"
         d="m 66.408731,23.456561 0.433948,-0.723246 -0.433948,-0.723247 -0.433949,0.723247 z" />
      <path
         transform="matrix(0.20456501,0,0,0.20456501,21.118037,7.0749289)"
         clip-path="url(#p34e1d54a10)"
         d="m 194.616,54.172283 h 53.568"
         style="fill:none;stroke:#000000;stroke-width:1.5;stroke-linecap:round;stroke-linejoin:round;stroke-opacity:1"
         id="path463"
         inkscape:connector-curvature="0" />
      <path
         style="fill:#000000;stroke-width:0.02250215;stroke-linecap:butt;stroke-linejoin:round"
         inkscape:connector-curvature="0"
         id="use171"
         d="m 24.325267,73.877293 h 0.349483 v -0.416289 h 0.157166 v 0.416289 h 0.668034 q 0.150481,0 0.193375,-0.04114 0.04289,-0.04113 0.04289,-0.16771 v -0.207441 h 0.169118 v 0.207441 q 0,0.234163 -0.0872,0.323116 -0.08755,0.08895 -0.318192,0.08895 h -0.668034 v 0.148378 H 24.67475 v -0.148378 h -0.349483 z" />
      <path
         style="fill:#000000;stroke-width:0.02250215;stroke-linecap:butt;stroke-linejoin:round"
         inkscape:connector-curvature="0"
         id="use173"
         d="M 24.67475,73.339924 V 73.125802 L 25.707391,72.741154 24.67475,72.35651 v -0.214122 l 1.230588,0.461645 v 0.274595 z" />
      <path
         style="fill:#000000;stroke-width:0.02250215;stroke-linecap:butt;stroke-linejoin:round"
         inkscape:connector-curvature="0"
         id="use175"
         d="m 25.239417,70.810715 h 0.0988 v 0.929623 q 0.208848,-0.01337 0.318191,-0.125875 0.109351,-0.112511 0.109351,-0.313623 0,-0.116378 -0.02847,-0.225725 -0.02847,-0.109347 -0.08579,-0.217286 h 0.191269 q 0.04606,0.108998 0.07032,0.223266 0.02427,0.114265 0.02427,0.231701 0,0.294636 -0.171228,0.466566 -0.171581,0.171933 -0.464107,0.171933 -0.30202,0 -0.479224,-0.163142 -0.177557,-0.163138 -0.177557,-0.440199 0,-0.248225 0.159974,-0.39273 0.159625,-0.144509 0.434224,-0.144509 z m -0.05942,0.202167 q -0.165601,0.0021 -0.2644,0.09282 -0.09915,0.09071 -0.09915,0.240139 0,0.169118 0.09563,0.270732 0.09563,0.101611 0.269321,0.11708 z" />
      <path
         style="fill:#000000;stroke-width:0.02250215;stroke-linecap:butt;stroke-linejoin:round"
         inkscape:connector-curvature="0"
         id="use177"
         d="m 24.86356,69.76595 q -0.01968,0.03411 -0.02882,0.07419 -0.0095,0.04008 -0.0095,0.08825 0,0.171577 0.111456,0.263345 0.111457,0.09177 0.320301,0.09177 h 0.648346 v 0.203221 H 24.674764 V 70.2835 h 0.191269 q -0.112158,-0.06399 -0.166303,-0.165954 -0.0545,-0.102316 -0.0545,-0.248581 0,-0.02074 0.0028,-0.04606 0.0025,-0.02533 0.0081,-0.05591 z" />
      <path
         style="fill:#000000;stroke-width:0.02250215;stroke-linecap:butt;stroke-linejoin:round"
         inkscape:connector-curvature="0"
         id="use179"
         d="m 24.710966,68.769437 h 0.191269 q -0.04395,0.08544 -0.06575,0.17791 -0.02215,0.09212 -0.02215,0.191265 0,0.150485 0.04606,0.225725 0.04606,0.07524 0.138529,0.07524 0.07032,0 0.110402,-0.0538 0.04008,-0.05379 0.0763,-0.216584 l 0.01545,-0.06927 q 0.04606,-0.215177 0.13009,-0.30589 0.08403,-0.09071 0.234516,-0.09071 0.171577,0 0.271784,0.135714 0.09985,0.135717 0.09985,0.373045 0,0.0988 -0.01933,0.206036 -0.01933,0.107238 -0.05766,0.225725 h -0.208848 q 0.05837,-0.112159 0.08755,-0.220804 0.02882,-0.108641 0.02882,-0.215529 0,-0.142745 -0.04887,-0.219396 -0.04887,-0.077 -0.137827,-0.077 -0.08227,0 -0.12622,0.05555 -0.04395,0.0552 -0.08474,0.243304 l -0.01654,0.07032 q -0.03938,0.187756 -0.121303,0.271435 -0.08192,0.08333 -0.22467,0.08333 -0.173686,0 -0.267913,-0.12306 -0.09458,-0.123056 -0.09458,-0.349486 0,-0.111806 0.01651,-0.210605 0.01619,-0.09915 0.04923,-0.182478 z" />
      <path
         style="fill:#000000;stroke-width:0.02250215;stroke-linecap:butt;stroke-linejoin:round"
         inkscape:connector-curvature="0"
         id="use181"
         d="m 24.195526,68.389231 v -0.203225 h 1.009784 l -0.53056,-0.603338 v -0.258071 l 0.575568,0.652561 0.65502,-0.680339 v 0.263698 l -0.600876,0.625489 h 0.600876 v 0.203225 z" />
      <path
         style="fill:#000000;stroke-width:0.02250215;stroke-linecap:butt;stroke-linejoin:round"
         inkscape:connector-curvature="0"
         id="use183"
         d="m 26.019606,66.64804 q 0.219749,0.08544 0.286554,0.167005 0.06716,0.08122 0.06716,0.217286 v 0.161735 h -0.169118 v -0.118837 q 0,-0.08333 -0.03973,-0.129388 -0.03938,-0.04641 -0.186701,-0.102316 l -0.09212,-0.03621 -1.210899,0.497508 v -0.214122 l 0.962321,-0.384647 -0.962321,-0.384644 v -0.214122 z" />
      <path
         style="fill:#000000;stroke-width:0.02250215;stroke-linecap:butt;stroke-linejoin:round"
         inkscape:connector-curvature="0"
         id="use185"
         d="m 26.279085,64.893048 h 0.156813 v 1.169406 h -0.156813 z" />
      <path
         style="fill:#000000;stroke-width:0.02250215;stroke-linecap:butt;stroke-linejoin:round"
         inkscape:connector-curvature="0"
         id="use187"
         d="m 24.195526,64.703183 v -0.202166 h 1.709812 v 0.202166 z" />
      <path
         style="fill:#000000;stroke-width:0.02250215;stroke-linecap:butt;stroke-linejoin:round"
         inkscape:connector-curvature="0"
         id="use189"
         d="m 24.816447,63.601236 q 0,0.16244 0.126926,0.25702 0.126926,0.09458 0.347726,0.09458 0.220803,0 0.347729,-0.09387 0.12693,-0.09423 0.12693,-0.257722 0,-0.161731 -0.127279,-0.255961 -0.127632,-0.09458 -0.34738,-0.09458 -0.218691,0 -0.346672,0.09458 -0.12798,0.09423 -0.12798,0.255961 z m -0.171228,0 q 0,-0.263694 0.171577,-0.414179 0.171228,-0.150833 0.474303,-0.150833 0.302023,0 0.474306,0.150833 0.17193,0.150485 0.17193,0.414179 0,0.264753 -0.17193,0.414884 -0.172283,0.149783 -0.474306,0.149783 -0.303075,0 -0.474303,-0.149783 -0.171577,-0.150131 -0.171577,-0.414884 z" />
      <path
         style="fill:#000000;stroke-width:0.02250215;stroke-linecap:butt;stroke-linejoin:round"
         inkscape:connector-curvature="0"
         id="use191"
         d="m 24.710966,61.916874 h 0.191269 q -0.04395,0.08544 -0.06575,0.177906 -0.02215,0.09212 -0.02215,0.191269 0,0.150484 0.04606,0.225725 0.04606,0.07524 0.138529,0.07524 0.07032,0 0.110402,-0.05379 0.04008,-0.0538 0.0763,-0.216584 l 0.01545,-0.06926 q 0.04606,-0.215177 0.13009,-0.30589 0.08403,-0.09071 0.234516,-0.09071 0.171577,0 0.271784,0.135713 0.09985,0.135718 0.09985,0.373045 0,0.0988 -0.01933,0.206037 -0.01933,0.107237 -0.05766,0.225724 h -0.208848 q 0.05837,-0.112158 0.08755,-0.220803 0.02882,-0.108642 0.02882,-0.21553 0,-0.142744 -0.04887,-0.219396 -0.04887,-0.077 -0.137827,-0.077 -0.08227,0 -0.12622,0.05555 -0.04395,0.0552 -0.08474,0.243304 l -0.01654,0.07032 q -0.03938,0.187752 -0.121303,0.271434 -0.08192,0.08333 -0.22467,0.08333 -0.173686,0 -0.267913,-0.123059 -0.09458,-0.12306 -0.09458,-0.349487 0,-0.111805 0.01651,-0.210604 0.01619,-0.09915 0.04923,-0.182478 z" />
      <path
         style="fill:#000000;stroke-width:0.02250215;stroke-linecap:butt;stroke-linejoin:round"
         inkscape:connector-curvature="0"
         id="use193"
         d="m 24.710966,60.744519 h 0.191269 q -0.04395,0.08544 -0.06575,0.17791 -0.02215,0.09212 -0.02215,0.191269 0,0.15048 0.04606,0.225721 0.04606,0.07524 0.138529,0.07524 0.07032,0 0.110402,-0.05379 0.04008,-0.0538 0.0763,-0.216585 l 0.01545,-0.06926 q 0.04606,-0.215177 0.13009,-0.305887 0.08403,-0.09071 0.234516,-0.09071 0.171577,0 0.271784,0.135717 0.09985,0.135717 0.09985,0.373045 0,0.0988 -0.01933,0.206033 -0.01933,0.107237 -0.05766,0.225725 h -0.208848 q 0.05837,-0.112159 0.08755,-0.2208 0.02882,-0.108645 0.02882,-0.21553 0,-0.142748 -0.04887,-0.219396 -0.04887,-0.077 -0.137827,-0.077 -0.08227,0 -0.12622,0.05555 -0.04395,0.0552 -0.08474,0.243304 l -0.01654,0.07032 q -0.03938,0.187756 -0.121303,0.271435 -0.08192,0.08333 -0.22467,0.08333 -0.173686,0 -0.267913,-0.123056 -0.09458,-0.12306 -0.09458,-0.34949 0,-0.111806 0.01651,-0.210605 0.01619,-0.09915 0.04923,-0.182478 z" />
      <path
         transform="matrix(0.20456501,0,0,0.20456501,-33.672651,7.0749289)"
         clip-path="url(#p34e1d54a10)"
         d="m 261.576,80.202103 h 53.568 V 60.463387 h -53.568 z"
         style="fill:#b55d60;stroke:#000000;stroke-width:1.5;stroke-linecap:butt;stroke-linejoin:miter;stroke-opacity:1"
         id="path363"
         inkscape:connector-curvature="0" />
      <path
         transform="matrix(0.20456501,0,0,0.20456501,-33.672651,7.0749289)"
         clip-path="url(#p34e1d54a10)"
         d="m 288.36,80.202103 v 3.989025"
         style="fill:none;stroke:#000000;stroke-width:1.5;stroke-linecap:round;stroke-linejoin:round;stroke-opacity:1"
         id="path423"
         inkscape:connector-curvature="0" />
      <path
         transform="matrix(0.20456501,0,0,0.20456501,-33.672651,7.0749289)"
         clip-path="url(#p34e1d54a10)"
         d="M 288.36,60.463387 V 44.443636"
         style="fill:none;stroke:#000000;stroke-width:1.5;stroke-linecap:round;stroke-linejoin:round;stroke-opacity:1"
         id="path426"
         inkscape:connector-curvature="0" />
      <path
         transform="matrix(0.20456501,0,0,0.20456501,-33.672651,7.0749289)"
         clip-path="url(#p34e1d54a10)"
         d="m 274.968,84.191128 h 26.784"
         style="fill:none;stroke:#000000;stroke-width:1.5;stroke-linecap:round;stroke-linejoin:round;stroke-opacity:1"
         id="path429"
         inkscape:connector-curvature="0" />
      <path
         transform="matrix(0.20456501,0,0,0.20456501,-33.672651,7.0749289)"
         clip-path="url(#p34e1d54a10)"
         d="m 274.968,44.443636 h 26.784"
         style="fill:none;stroke:#000000;stroke-width:1.5;stroke-linecap:round;stroke-linejoin:round;stroke-opacity:1"
         id="path432"
         inkscape:connector-curvature="0" />
      <path
         transform="matrix(0.20456501,0,0,0.20456501,-33.672651,7.0749289)"
         clip-path="url(#p34e1d54a10)"
         d="m 261.576,66.681419 h 53.568"
         style="fill:none;stroke:#000000;stroke-width:1.5;stroke-linecap:round;stroke-linejoin:round;stroke-opacity:1"
         id="path466"
         inkscape:connector-curvature="0" />
      <path
         transform="matrix(0.20456501,0,0,0.20456501,7.4184384,7.0749289)"
         clip-path="url(#p34e1d54a10)"
         d="m 328.536,242.10154 h 53.568"
         style="fill:none;stroke:#000000;stroke-width:1.5;stroke-linecap:round;stroke-linejoin:round;stroke-opacity:1"
         id="path469"
         inkscape:connector-curvature="0" />
      <path
         d="M 18.464948,58.625309 V 14.144695"
         style="fill:none;stroke:#ffffff;stroke-width:0.25570625;stroke-linecap:square;stroke-linejoin:miter"
         id="path472"
         inkscape:connector-curvature="0" />
      <path
         d="M 86.953312,58.625309 V 14.144695"
         style="fill:none;stroke:#ffffff;stroke-width:0.25570625;stroke-linecap:square;stroke-linejoin:miter"
         id="path475"
         inkscape:connector-curvature="0" />
      <path
         d="M 18.464948,58.625309 H 86.953312"
         style="fill:none;stroke:#ffffff;stroke-width:0.25570625;stroke-linecap:square;stroke-linejoin:miter"
         id="path478"
         inkscape:connector-curvature="0" />
      <path
         d="M 18.464948,14.144695 H 86.953312"
         style="fill:none;stroke:#ffffff;stroke-width:0.25570625;stroke-linecap:square;stroke-linejoin:miter"
         id="path481"
         inkscape:connector-curvature="0" />
      <path
         style="fill:#000000;stroke-width:0.02250215;stroke-linecap:butt;stroke-linejoin:round"
         inkscape:connector-curvature="0"
         id="use111"
         d="m 64.59062,77.832228 v -0.20217 L 65.550828,77.377261 64.59062,77.125868 V 76.887485 L 65.550828,76.634688 64.59062,76.382946 V 76.18078 l 1.230584,0.322061 v 0.238383 l -1.008726,0.264749 1.008726,0.265807 v 0.238736 z" />
      <path
         style="fill:#000000;stroke-width:0.02250215;stroke-linecap:butt;stroke-linejoin:round"
         inkscape:connector-curvature="0"
         id="use113"
         d="m 65.155283,74.821728 h 0.0988 v 0.929619 q 0.208844,-0.01337 0.318195,-0.125871 0.109343,-0.112508 0.109343,-0.313623 0,-0.116378 -0.02847,-0.225725 -0.02847,-0.109347 -0.08579,-0.217286 h 0.191269 q 0.04606,0.108994 0.07032,0.223262 0.02427,0.114272 0.02427,0.231704 0,0.294637 -0.171228,0.466567 -0.171577,0.171929 -0.464108,0.171929 -0.30202,0 -0.479224,-0.163138 -0.177556,-0.163142 -0.177556,-0.4402 0,-0.248225 0.159974,-0.392733 0.159625,-0.144505 0.434224,-0.144505 z m -0.05942,0.20217 q -0.165601,0.0021 -0.2644,0.09282 -0.09915,0.09071 -0.09915,0.24014 0,0.169118 0.09563,0.270728 0.09564,0.101611 0.269325,0.11708 z" />
      <path
         style="fill:#000000;stroke-width:0.02250215;stroke-linecap:butt;stroke-linejoin:round"
         inkscape:connector-curvature="0"
         id="use115"
         d="m 64.59062,74.489997 v -0.20217 h 1.230584 v 0.20217 z m -0.479228,0 v -0.20217 h 0.256315 v 0.20217 z" />
      <path
         style="fill:#000000;stroke-width:0.02250215;stroke-linecap:butt;stroke-linejoin:round"
         inkscape:connector-curvature="0"
         id="use117"
         d="m 65.191496,73.055088 q -0.219746,0 -0.340343,0.09071 -0.12095,0.09036 -0.12095,0.254204 0,0.162437 0.12095,0.253147 0.120597,0.09071 0.340343,0.09071 0.218694,0 0.339643,-0.09071 0.120947,-0.09071 0.120947,-0.253147 0,-0.163844 -0.120947,-0.254204 -0.120949,-0.09071 -0.339643,-0.09071 z m 0.477117,-0.202167 q 0.313976,0 0.467269,0.139584 0.153299,0.139234 0.153299,0.427189 0,0.106535 -0.0158,0.201115 -0.01581,0.09458 -0.04887,0.183533 h -0.196544 q 0.04817,-0.08896 0.07102,-0.1758 0.02321,-0.08684 0.02321,-0.176851 0,-0.199006 -0.10372,-0.297805 -0.10372,-0.0988 -0.313623,-0.0988 h -0.100203 q 0.108995,0.06259 0.162786,0.16033 0.05379,0.09774 0.05379,0.234163 0,0.226074 -0.172282,0.364603 -0.172632,0.138529 -0.457426,0.138529 -0.285496,0 -0.457779,-0.138529 -0.172632,-0.138529 -0.172632,-0.364603 0,-0.136422 0.0538,-0.234163 0.05379,-0.09774 0.162436,-0.16033 h -0.186697 v -0.202167 z" />
      <path
         style="fill:#000000;stroke-width:0.02250215;stroke-linecap:butt;stroke-linejoin:round"
         inkscape:connector-curvature="0"
         id="use119"
         d="m 65.078282,71.413313 h 0.742922 v 0.202166 h -0.73624 q -0.174745,0 -0.261236,0.06821 -0.08684,0.06821 -0.08684,0.204276 0,0.163844 0.104422,0.258423 0.10407,0.09458 0.284441,0.09458 h 0.695456 v 0.203221 h -1.709812 v -0.203221 h 0.670497 q -0.111107,-0.07278 -0.165954,-0.170875 -0.05485,-0.09845 -0.05485,-0.227132 0,-0.212013 0.131145,-0.320654 0.131146,-0.108994 0.386052,-0.108994 z" />
      <path
         style="fill:#000000;stroke-width:0.02250215;stroke-linecap:butt;stroke-linejoin:round"
         inkscape:connector-curvature="0"
         id="use121"
         d="m 64.241133,70.810236 h 0.349487 v -0.416289 h 0.157162 v 0.416289 h 0.668031 q 0.150484,0 0.193379,-0.04114 0.04289,-0.04114 0.04289,-0.16771 V 70.393945 H 65.8212 v 0.207441 q 0,0.234163 -0.0872,0.323116 -0.08755,0.08896 -0.318195,0.08896 h -0.668031 v 0.148372 H 64.59062 V 71.01346 h -0.349487 z" />
      <path
         style="fill:#000000;stroke-width:0.02250215;stroke-linecap:butt;stroke-linejoin:round"
         inkscape:connector-curvature="0"
         id="use123"
         d="m 65.155283,69.075327 h 0.0988 v 0.929623 q 0.208844,-0.01337 0.318195,-0.125871 0.109343,-0.112512 0.109343,-0.313627 0,-0.116374 -0.02847,-0.225725 -0.02847,-0.109347 -0.08579,-0.217283 h 0.191269 q 0.04606,0.108995 0.07032,0.223263 0.02427,0.114268 0.02427,0.231701 0,0.294636 -0.171228,0.46657 -0.171577,0.171929 -0.464108,0.171929 -0.30202,0 -0.479224,-0.163142 -0.177556,-0.163138 -0.177556,-0.440199 0,-0.248225 0.159974,-0.39273 0.159625,-0.144509 0.434224,-0.144509 z m -0.05942,0.20217 q -0.165601,0.0021 -0.2644,0.09282 -0.09915,0.09071 -0.09915,0.240136 0,0.169118 0.09563,0.270732 0.09564,0.101611 0.269325,0.11708 z" />
      <path
         style="fill:#000000;stroke-width:0.02250215;stroke-linecap:butt;stroke-linejoin:round"
         inkscape:connector-curvature="0"
         id="use125"
         d="m 64.777317,67.933873 h -0.665925 v -0.20217 h 1.709812 v 0.20217 h -0.184587 q 0.109699,0.06364 0.163142,0.161029 0.05344,0.09704 0.05344,0.233461 0,0.222913 -0.177909,0.363199 -0.178259,0.139936 -0.468327,0.139936 -0.290065,0 -0.467974,-0.139936 -0.177906,-0.140286 -0.177906,-0.363199 0,-0.136419 0.05344,-0.233461 0.05309,-0.09739 0.162789,-0.161029 z m 0.429648,0.688774 q 0.222913,0 0.349839,-0.09176 0.126926,-0.09177 0.126926,-0.252095 0,-0.160327 -0.126926,-0.252444 -0.126926,-0.09247 -0.349839,-0.09247 -0.22291,0 -0.349836,0.09247 -0.126926,0.09212 -0.126926,0.252444 0,0.16033 0.126926,0.252095 0.126926,0.09176 0.349836,0.09176 z" />
      <path
         style="fill:#000000;stroke-width:0.02250215;stroke-linecap:butt;stroke-linejoin:round"
         inkscape:connector-curvature="0"
         id="use127"
         d="m 66.194951,66.379992 h 0.156813 v 1.169409 h -0.156813 z" />
      <path
         style="fill:#000000;stroke-width:0.02250215;stroke-linecap:butt;stroke-linejoin:round"
         inkscape:connector-curvature="0"
         id="use129"
         d="m 64.637733,65.304461 h 0.18916 q -0.04747,0.08579 -0.07102,0.17193 -0.02357,0.08614 -0.02357,0.174039 0,0.196896 0.124817,0.30589 0.124463,0.108645 0.349835,0.108645 0.225376,0 0.350192,-0.108645 0.124464,-0.108994 0.124464,-0.30589 0,-0.0879 -0.02357,-0.174039 -0.02357,-0.08614 -0.07103,-0.17193 h 0.18705 q 0.03938,0.08473 0.05907,0.175447 0.02004,0.09036 0.02004,0.192673 0,0.278113 -0.174745,0.441957 -0.174741,0.163491 -0.471491,0.163491 -0.300965,0 -0.473248,-0.165248 -0.172631,-0.165601 -0.172631,-0.453559 0,-0.09317 0.01933,-0.182126 0.01898,-0.08896 0.05731,-0.172635 z" />
      <path
         style="fill:#000000;stroke-width:0.02250215;stroke-linecap:butt;stroke-linejoin:round"
         inkscape:connector-curvature="0"
         id="use131"
         d="m 64.779426,64.239915 q -0.01968,0.03411 -0.02882,0.07419 -0.0095,0.04008 -0.0095,0.08825 0,0.17158 0.111453,0.263345 0.11146,0.09177 0.320308,0.09177 h 0.648342 v 0.203221 H 64.590625 V 64.75747 h 0.191265 q -0.112158,-0.06399 -0.166303,-0.165954 -0.0545,-0.102312 -0.0545,-0.248577 0,-0.02074 0.0028,-0.04606 0.0025,-0.02533 0.0081,-0.0559 z" />
      <path
         style="fill:#000000;stroke-width:0.02250215;stroke-linecap:butt;stroke-linejoin:round"
         inkscape:connector-curvature="0"
         id="use133"
         d="m 64.732313,63.60168 q 0,0.162437 0.126926,0.257017 0.126926,0.09458 0.347726,0.09458 0.220804,0 0.347729,-0.09387 0.126926,-0.09423 0.126926,-0.257722 0,-0.161734 -0.127275,-0.255961 -0.127631,-0.09458 -0.34738,-0.09458 -0.218691,0 -0.346671,0.09458 -0.127981,0.09423 -0.127981,0.255961 z m -0.171228,0 q 0,-0.263697 0.171577,-0.414178 0.171228,-0.150837 0.474303,-0.150837 0.302024,0 0.474306,0.150837 0.17193,0.150481 0.17193,0.414178 0,0.264753 -0.17193,0.414885 -0.172282,0.149779 -0.474306,0.149779 -0.303075,0 -0.474303,-0.149779 -0.171577,-0.150132 -0.171577,-0.414885 z" />
      <path
         style="fill:#000000;stroke-width:0.02250215;stroke-linecap:butt;stroke-linejoin:round"
         inkscape:connector-curvature="0"
         id="use135"
         d="m 64.626832,61.917315 h 0.19127 q -0.04395,0.08544 -0.06575,0.177906 -0.02215,0.09212 -0.02215,0.191269 0,0.150484 0.04606,0.225725 0.04606,0.07524 0.138528,0.07524 0.07032,0 0.110402,-0.05379 0.04008,-0.05379 0.0763,-0.21658 l 0.01545,-0.06927 q 0.04606,-0.215177 0.13009,-0.305887 0.08403,-0.09071 0.234516,-0.09071 0.171577,0 0.271784,0.135717 0.09985,0.135717 0.09985,0.373041 0,0.0988 -0.01933,0.206037 -0.01933,0.107237 -0.05766,0.225724 h -0.208848 q 0.05837,-0.112158 0.08755,-0.220803 0.02882,-0.108642 0.02882,-0.215526 0,-0.142748 -0.04887,-0.219396 -0.04887,-0.077 -0.137827,-0.077 -0.08227,0 -0.126224,0.05555 -0.04395,0.0552 -0.08473,0.243301 l -0.01654,0.07032 q -0.03938,0.187752 -0.121303,0.271434 -0.08192,0.08333 -0.22467,0.08333 -0.173686,0 -0.267917,-0.12306 -0.09458,-0.123059 -0.09458,-0.349486 0,-0.111809 0.01651,-0.210608 0.01619,-0.09915 0.04923,-0.182478 z" />
      <path
         style="fill:#000000;stroke-width:0.02250215;stroke-linecap:butt;stroke-linejoin:round"
         inkscape:connector-curvature="0"
         id="use137"
         d="m 64.626832,60.744964 h 0.19127 q -0.04395,0.08543 -0.06575,0.177906 -0.02215,0.09212 -0.02215,0.191269 0,0.15048 0.04606,0.225724 0.04606,0.07524 0.138528,0.07524 0.07032,0 0.110402,-0.0538 0.04008,-0.05379 0.0763,-0.216581 l 0.01545,-0.06926 q 0.04606,-0.215177 0.13009,-0.305891 0.08403,-0.09071 0.234516,-0.09071 0.171577,0 0.271784,0.135713 0.09985,0.135717 0.09985,0.373045 0,0.0988 -0.01933,0.206033 -0.01933,0.107237 -0.05766,0.225725 h -0.208848 q 0.05837,-0.112159 0.08755,-0.2208 0.02882,-0.108645 0.02882,-0.21553 0,-0.142748 -0.04887,-0.219396 -0.04887,-0.077 -0.137827,-0.077 -0.08227,0 -0.126224,0.05555 -0.04395,0.0552 -0.08473,0.243304 l -0.01654,0.07032 q -0.03938,0.187752 -0.121303,0.27143 -0.08192,0.08333 -0.22467,0.08333 -0.173686,0 -0.267917,-0.123059 -0.09458,-0.123056 -0.09458,-0.349487 0,-0.111806 0.01651,-0.210604 0.01619,-0.09915 0.04923,-0.182478 z" />
      <path
         style="fill:#000000;stroke-width:0.02250215;stroke-linecap:butt;stroke-linejoin:round"
         inkscape:connector-curvature="0"
         id="use199"
         d="m 50.40968,69.953391 v -0.202166 h 1.709812 v 0.202166 z" />
      <path
         style="fill:#000000;stroke-width:0.02250215;stroke-linecap:butt;stroke-linejoin:round"
         inkscape:connector-curvature="0"
         id="use201"
         d="m 51.030597,68.851448 q 0,0.162436 0.126926,0.257016 0.126926,0.09458 0.34773,0.09458 0.220803,0 0.347729,-0.09388 0.126926,-0.09423 0.126926,-0.257718 0,-0.161735 -0.127279,-0.255962 -0.127631,-0.09458 -0.347376,-0.09458 -0.218694,0 -0.346675,0.09458 -0.127981,0.09423 -0.127981,0.255962 z m -0.171227,0 q 0,-0.263698 0.17158,-0.414179 0.171228,-0.150837 0.474303,-0.150837 0.30202,0 0.474302,0.150837 0.17193,0.150481 0.17193,0.414179 0,0.264752 -0.17193,0.414884 -0.172282,0.149779 -0.474302,0.149779 -0.303075,0 -0.474303,-0.149779 -0.17158,-0.150132 -0.17158,-0.414884 z" />
      <path
         style="fill:#000000;stroke-width:0.02250215;stroke-linecap:butt;stroke-linejoin:round"
         inkscape:connector-curvature="0"
         id="use203"
         d="m 51.489783,67.141767 q -0.219748,0 -0.340345,0.09071 -0.12095,0.09036 -0.12095,0.254201 0,0.16244 0.12095,0.25315 0.120597,0.09071 0.340345,0.09071 0.218691,0 0.339641,-0.09071 0.12095,-0.09071 0.12095,-0.25315 0,-0.163841 -0.12095,-0.254201 -0.12095,-0.09071 -0.339641,-0.09071 z M 51.966898,66.9396 q 0.313975,0 0.467272,0.139584 0.153296,0.139231 0.153296,0.427189 0,0.106532 -0.01584,0.201112 -0.01581,0.09458 -0.04887,0.183536 h -0.196544 q 0.04817,-0.08896 0.07102,-0.1758 0.02321,-0.08684 0.02321,-0.176855 0,-0.199002 -0.10372,-0.2978 -0.10372,-0.0988 -0.313626,-0.0988 h -0.100203 q 0.108994,0.06259 0.162789,0.160326 0.0538,0.09775 0.0538,0.234164 0,0.226077 -0.172282,0.364606 -0.172632,0.138529 -0.457426,0.138529 -0.2855,0 -0.457779,-0.138529 -0.172635,-0.138529 -0.172635,-0.364606 0,-0.136419 0.0538,-0.234164 0.0538,-0.09774 0.162437,-0.160326 H 50.888894 V 66.9396 Z" />
      <path
         style="fill:#000000;stroke-width:0.02250215;stroke-linecap:butt;stroke-linejoin:round"
         inkscape:connector-curvature="0"
         id="use205"
         d="m 52.493239,65.587886 h 0.156809 v 1.169413 h -0.156809 z" />
      <path
         style="fill:#000000;stroke-width:0.02250215;stroke-linecap:butt;stroke-linejoin:round"
         inkscape:connector-curvature="0"
         id="use207"
         d="m 50.936018,64.512355 h 0.189159 q -0.04747,0.08579 -0.07102,0.171933 -0.02357,0.08614 -0.02357,0.17404 0,0.196892 0.124817,0.305886 0.124467,0.108642 0.349839,0.108642 0.225372,0 0.350188,-0.108642 0.124467,-0.108994 0.124467,-0.305886 0,-0.0879 -0.02356,-0.17404 -0.02357,-0.08614 -0.07102,-0.171933 h 0.18705 q 0.03938,0.08474 0.05907,0.175447 0.02004,0.09036 0.02004,0.192673 0,0.278113 -0.174742,0.44196 -0.174745,0.163491 -0.471494,0.163491 -0.300966,0 -0.473245,-0.165251 -0.172635,-0.165601 -0.172635,-0.45356 0,-0.09317 0.01933,-0.182128 0.01898,-0.08895 0.05731,-0.172632 z" />
      <path
         style="fill:#000000;stroke-width:0.02250215;stroke-linecap:butt;stroke-linejoin:round"
         inkscape:connector-curvature="0"
         id="use209"
         d="m 51.030597,63.684082 q 0,0.162437 0.126926,0.257017 0.126926,0.09458 0.34773,0.09458 0.220803,0 0.347729,-0.09387 0.126926,-0.09423 0.126926,-0.257722 0,-0.161734 -0.127279,-0.255961 -0.127631,-0.09458 -0.347376,-0.09458 -0.218694,0 -0.346675,0.09458 -0.127981,0.09423 -0.127981,0.255961 z m -0.171227,0 q 0,-0.263698 0.17158,-0.414178 0.171228,-0.150838 0.474303,-0.150838 0.30202,0 0.474302,0.150838 0.17193,0.15048 0.17193,0.414178 0,0.264753 -0.17193,0.414885 -0.172282,0.149778 -0.474302,0.149778 -0.303075,0 -0.474303,-0.149778 -0.17158,-0.150132 -0.17158,-0.414885 z" />
      <path
         style="fill:#000000;stroke-width:0.02250215;stroke-linecap:butt;stroke-linejoin:round"
         inkscape:connector-curvature="0"
         id="use211"
         d="m 50.92512,61.99972 h 0.191269 q -0.04395,0.08544 -0.06575,0.177906 -0.02215,0.09212 -0.02215,0.191269 0,0.150481 0.04606,0.225725 0.04606,0.07524 0.138529,0.07524 0.07032,0 0.110401,-0.0538 0.04008,-0.05379 0.0763,-0.216584 l 0.01545,-0.06927 q 0.04606,-0.215173 0.130091,-0.305886 0.08403,-0.09071 0.234516,-0.09071 0.17158,0 0.271783,0.135717 0.09985,0.135717 0.09985,0.373045 0,0.0988 -0.01933,0.206032 -0.01933,0.107238 -0.05766,0.225729 h -0.208848 q 0.05836,-0.112162 0.08754,-0.220804 0.02882,-0.108645 0.02882,-0.215529 0,-0.142748 -0.04887,-0.219396 -0.04887,-0.077 -0.137823,-0.077 -0.08228,0 -0.126224,0.05555 -0.04395,0.0552 -0.08473,0.243307 l -0.01655,0.07032 q -0.03938,0.187752 -0.121299,0.271431 -0.08192,0.08333 -0.22467,0.08333 -0.17369,0 -0.267917,-0.12306 -0.09458,-0.123059 -0.09458,-0.349486 0,-0.111806 0.01655,-0.210605 0.01619,-0.09915 0.04922,-0.182478 z" />
      <path
         style="fill:#000000;stroke-width:0.02250215;stroke-linecap:butt;stroke-linejoin:round"
         inkscape:connector-curvature="0"
         id="use213"
         d="m 51.376566,60.58863 h 0.742926 v 0.20217 h -0.736244 q -0.174741,0 -0.261235,0.06821 -0.08684,0.06821 -0.08684,0.204276 0,0.163844 0.104423,0.258423 0.104072,0.09458 0.284441,0.09458 h 0.695459 V 61.61951 H 50.40968 v -0.203224 h 0.670493 q -0.111104,-0.07278 -0.165954,-0.170875 -0.05485,-0.09845 -0.05485,-0.227129 0,-0.212013 0.131145,-0.320658 0.131145,-0.108994 0.386052,-0.108994 z" />
      <path
         style="fill:#000000;stroke-width:0.02250215;stroke-linecap:butt;stroke-linejoin:round"
         inkscape:connector-curvature="0"
         id="use64"
         d="m 79.141246,66.588929 q -0.222913,0 -0.349839,0.09176 -0.126926,0.09177 -0.126926,0.252095 0,0.16068 0.126926,0.252444 0.126926,0.09177 0.349839,0.09177 0.22291,0 0.349839,-0.09177 0.126926,-0.09176 0.126926,-0.252444 0,-0.160327 -0.126926,-0.252095 -0.126929,-0.09176 -0.349839,-0.09176 z M 78.711594,67.277 q -0.109696,-0.06399 -0.162789,-0.161032 -0.05344,-0.09739 -0.05344,-0.232403 0,-0.224317 0.177909,-0.364254 0.177906,-0.140289 0.467974,-0.140289 0.290064,0 0.468326,0.140289 0.177906,0.139937 0.177906,0.364254 0,0.135012 -0.05344,0.232403 -0.05344,0.09704 -0.163142,0.161032 h 0.184591 v 0.203225 H 78.045673 V 67.277 Z" />
      <path
         style="fill:#000000;stroke-width:0.02250215;stroke-linecap:butt;stroke-linejoin:round"
         inkscape:connector-curvature="0"
         id="use66"
         d="M 78.524897,66.044127 V 65.84196 h 1.230588 v 0.202167 z m -0.479224,0 V 65.84196 h 0.256311 v 0.202167 z" />
      <path
         style="fill:#000000;stroke-width:0.02250215;stroke-linecap:butt;stroke-linejoin:round"
         inkscape:connector-curvature="0"
         id="use68"
         d="m 79.01256,64.395804 h 0.742925 v 0.202167 h -0.736244 q -0.174741,0 -0.261235,0.06821 -0.08684,0.06821 -0.08684,0.204276 0,0.163844 0.104423,0.258424 0.104073,0.09458 0.284441,0.09458 h 0.695459 v 0.203221 H 78.524897 V 65.22346 h 0.191269 q -0.111104,-0.07278 -0.165953,-0.170875 -0.05485,-0.09845 -0.05485,-0.227133 0,-0.212012 0.131145,-0.320653 0.131145,-0.108995 0.386052,-0.108995 z" />
      <path
         style="fill:#000000;stroke-width:0.02250215;stroke-linecap:butt;stroke-linejoin:round"
         inkscape:connector-curvature="0"
         id="use70"
         d="m 79.137027,63.433395 q 0,0.245064 0.0559,0.339644 0.0559,0.09458 0.191266,0.09458 0.10759,0 0.170878,-0.07102 0.06294,-0.07102 0.06294,-0.192673 0,-0.168417 -0.119193,-0.270027 -0.11919,-0.101611 -0.316787,-0.101611 h -0.045 z m -0.08368,-0.403282 h 0.702137 v 0.20217 h -0.186697 q 0.111806,0.06926 0.165248,0.172632 0.05344,0.103371 0.05344,0.252797 0,0.18881 -0.106182,0.300616 -0.106183,0.111457 -0.284089,0.111457 -0.20744,0 -0.312921,-0.138882 -0.105477,-0.139231 -0.105477,-0.414884 v -0.283736 h -0.02004 q -0.139584,0 -0.215883,0.09177 -0.0763,0.09177 -0.0763,0.257719 0,0.10548 0.02533,0.205683 0.02533,0.09985 0.07594,0.191971 H 78.58082 q -0.0429,-0.110751 -0.06399,-0.215176 -0.02145,-0.104426 -0.02145,-0.203225 0,-0.267212 0.138529,-0.399059 0.138176,-0.131851 0.419456,-0.131851 z" />
      <path
         style="fill:#000000;stroke-width:0.02250215;stroke-linecap:butt;stroke-linejoin:round"
         inkscape:connector-curvature="0"
         id="use72"
         d="m 78.713704,61.900833 q -0.01969,0.03411 -0.02882,0.07419 -0.0095,0.04008 -0.0095,0.08825 0,0.171577 0.111457,0.263345 0.111456,0.09177 0.320304,0.09177 h 0.648342 v 0.203221 h -1.230584 v -0.203221 h 0.191269 q -0.112162,-0.06399 -0.166306,-0.165954 -0.0545,-0.102313 -0.0545,-0.248578 0,-0.02074 0.0028,-0.04606 0.0025,-0.02533 0.0081,-0.0559 z" />
      <path
         style="fill:#000000;stroke-width:0.02250215;stroke-linecap:butt;stroke-linejoin:round"
         inkscape:connector-curvature="0"
         id="use74"
         d="m 79.869753,61.17681 q 0.219745,0.08543 0.286551,0.167005 0.06715,0.08122 0.06715,0.217286 v 0.161734 h -0.169118 v -0.118836 q 0,-0.08333 -0.03973,-0.129389 -0.03938,-0.04641 -0.186697,-0.102316 l -0.09212,-0.03621 -1.210896,0.497508 V 61.61947 l 0.962318,-0.384648 -0.962318,-0.384644 v -0.214122 z" />
    </g>
  </g>
</svg>
