<?xml version="1.0" encoding="UTF-8" standalone="no"?>
<!-- Created with Inkscape (http://www.inkscape.org/) -->

<svg
   xmlns:dc="http://purl.org/dc/elements/1.1/"
   xmlns:cc="http://creativecommons.org/ns#"
   xmlns:rdf="http://www.w3.org/1999/02/22-rdf-syntax-ns#"
   xmlns:svg="http://www.w3.org/2000/svg"
   xmlns="http://www.w3.org/2000/svg"
   xmlns:sodipodi="http://sodipodi.sourceforge.net/DTD/sodipodi-0.dtd"
   xmlns:inkscape="http://www.inkscape.org/namespaces/inkscape"
   width="207.19859mm"
   height="62.810909mm"
   viewBox="0 0 207.19859 62.810909"
   version="1.1"
   id="svg8"
   inkscape:version="0.92.4 (5da689c313, 2019-01-14)"
   sodipodi:docname="IconBrain.svg">
  <defs
     id="defs2" />
  <sodipodi:namedview
     id="base"
     pagecolor="#ffffff"
     bordercolor="#666666"
     borderopacity="1.0"
     inkscape:pageopacity="0.0"
     inkscape:pageshadow="2"
     inkscape:zoom="0.49497475"
     inkscape:cx="328.36052"
     inkscape:cy="5.4166581"
     inkscape:document-units="mm"
     inkscape:current-layer="layer1"
     showgrid="false"
     inkscape:snap-global="false"
     showguides="true"
     fit-margin-top="0"
     fit-margin-left="0"
     fit-margin-right="0"
     fit-margin-bottom="0"
     inkscape:window-width="1366"
     inkscape:window-height="705"
     inkscape:window-x="-8"
     inkscape:window-y="-8"
     inkscape:window-maximized="1" />
  <metadata
     id="metadata5">
    <rdf:RDF>
      <cc:Work
         rdf:about="">
        <dc:format>image/svg+xml</dc:format>
        <dc:type
           rdf:resource="http://purl.org/dc/dcmitype/StillImage" />
        <dc:title></dc:title>
      </cc:Work>
    </rdf:RDF>
  </metadata>
  <g
     inkscape:label="Capa 1"
     inkscape:groupmode="layer"
     id="layer1"
     transform="translate(-3.6699599,-2.3983444)">
    <g
       id="g1218"
       transform="translate(7.4835469,-200.45215)">
      <rect
         y="202.85049"
         x="-3.813587"
         height="62.810909"
         width="207.19859"
         id="rect993"
         style="opacity:1;vector-effect:none;fill:#321957;fill-opacity:1;stroke:none;stroke-width:3.22680712;stroke-linecap:round;stroke-linejoin:miter;stroke-miterlimit:4;stroke-dasharray:none;stroke-dashoffset:0;stroke-opacity:1" />
      <circle
         r="23.046"
         cy="233.68181"
         cx="32.931999"
         id="path964-0-5"
         style="opacity:1;vector-effect:none;fill:#393241;fill-opacity:1;stroke:none;stroke-width:5.69842911;stroke-linecap:round;stroke-linejoin:miter;stroke-miterlimit:4;stroke-dasharray:none;stroke-dashoffset:0;stroke-opacity:1" />
      <path
         inkscape:connector-curvature="0"
         id="path1058"
         d="m 28.82645,249.58764 c -1.116869,-0.23305 -1.793975,-0.6993 -2.392248,-1.64731 -0.730525,-1.15756 -0.804019,-1.22353 -1.423646,-1.27775 -1.314321,-0.11501 -2.797601,-1.02898 -3.266901,-2.013 -0.295082,-0.61872 -0.386784,-1.34486 -0.2506,-1.98437 0.03597,-0.16891 0.172469,-0.59413 0.303329,-0.94494 l 0.237929,-0.63784 -0.14134,-0.12369 c -0.07774,-0.068 -0.36875,-0.21088 -0.646689,-0.31743 -1.003711,-0.3848 -1.675527,-0.97129 -2.090717,-1.82518 -0.298934,-0.61479 -0.377661,-0.92061 -0.409196,-1.58953 -0.03761,-0.79771 0.115805,-1.41445 0.5687,-2.28628 0.669954,-1.28966 1.708177,-2.08047 3.244874,-2.47162 0.454948,-0.1158 0.570545,-0.12604 1.393788,-0.12337 0.819716,0.003 0.938636,0.0139 1.369055,0.12958 0.52765,0.14179 1.302599,0.50143 1.64365,0.76277 0.30204,0.23146 0.462163,0.2838 0.664204,0.21712 0.260411,-0.0859 0.386334,-0.25625 0.386334,-0.52248 0,-0.27697 -0.08237,-0.37786 -0.581324,-0.71197 -1.563319,-1.04685 -3.696665,-1.30228 -5.655283,-0.67713 -0.704395,0.22483 -1.591302,0.69708 -1.972874,1.05051 -0.08122,0.0752 -0.14678,0.10385 -0.17418,0.0761 -0.08415,-0.0854 -0.571508,-1.34397 -0.689041,-1.77944 -0.517785,-1.91844 -0.353857,-4.12626 0.429093,-5.7791 0.517911,-1.09334 1.47869,-2.07527 2.558775,-2.61512 0.479901,-0.23987 0.960932,-0.41638 1.380339,-0.5065 0.453223,-0.0974 0.345583,0.0149 1.113351,-1.16151 0.259656,-0.39785 0.620482,-0.87962 0.801835,-1.07058 0.52187,-0.54954 1.432531,-1.10999 2.302016,-1.41673 0.718343,-0.25341 1.079529,-0.30249 2.403969,-0.32661 1.169406,-0.0213 1.215779,-0.0187 1.452452,0.0832 0.352097,0.15147 0.832008,0.66968 0.928536,1.00264 0.172458,0.59488 0.180147,1.18248 0.200044,15.28421 l 0.01947,13.80699 -0.128598,0.21944 c -0.219152,0.37395 -0.601633,0.74795 -0.902607,0.88259 -0.636416,0.28469 -2.002767,0.43499 -2.676507,0.2944 z m -0.97232,-6.10462 c 0.197239,-0.1165 0.25004,-0.29315 0.242343,-0.81076 -0.03996,-2.68835 -1.549834,-4.69272 -3.990332,-5.29722 -0.405188,-0.10036 -0.418534,-0.10074 -0.590587,-0.0167 -0.241181,0.11787 -0.369438,0.37762 -0.29613,0.59975 0.07845,0.2377 0.181258,0.30467 0.667454,0.43479 0.587148,0.15713 1.221716,0.4648 1.620327,0.78561 0.926176,0.74541 1.473443,1.92808 1.525963,3.29769 0.01246,0.32482 0.04444,0.66133 0.07107,0.74779 0.09019,0.29287 0.47032,0.42416 0.749897,0.25901 z m -1.307568,-16.35809 c 1.226056,-0.32188 2.157601,-1.18423 2.67493,-2.47623 0.236384,-0.59036 0.18488,-0.90449 -0.172807,-1.05394 -0.129165,-0.054 -0.200081,-0.0579 -0.321342,-0.0179 -0.217596,0.0718 -0.281554,0.15849 -0.442257,0.59936 -0.347297,0.95278 -1.011211,1.62871 -1.874509,1.90845 -0.264427,0.0857 -0.458594,0.10968 -0.968563,0.11969 -0.350808,0.007 -0.666046,0.0139 -0.700529,0.0157 -0.03448,0.002 -0.124841,0.0653 -0.200798,0.14129 -0.113263,0.11326 -0.138107,0.17784 -0.138107,0.35902 0,0.1852 0.02323,0.24261 0.143687,0.35513 0.176324,0.16472 0.289777,0.18251 1.037487,0.16275 0.401754,-0.0106 0.709602,-0.0469 0.962808,-0.11332 z"
         style="opacity:1;vector-effect:none;fill:#ffffff;fill-opacity:1;stroke:none;stroke-width:0.17857143;stroke-linecap:round;stroke-linejoin:miter;stroke-miterlimit:4;stroke-dasharray:none;stroke-dashoffset:0;stroke-opacity:1" />
      <path
         inkscape:connector-curvature="0"
         id="path1056"
         d="m 36.186087,249.55912 c -0.4729,-0.0552 -1.137232,-0.20697 -1.39718,-0.3192 -0.297593,-0.12849 -0.571375,-0.38527 -0.848243,-0.79557 l -0.230421,-0.34147 0.0031,-7.66796 c 0.004,-9.86921 0.07117,-20.02993 0.136803,-20.70814 0.02766,-0.28585 0.08416,-0.62234 0.125539,-0.74776 0.09503,-0.28801 0.551992,-0.78703 0.859327,-0.93841 0.213215,-0.10503 0.264369,-0.10911 1.332034,-0.10642 1.20695,0.003 1.63879,0.0551 2.36876,0.28538 0.79503,0.25084 1.82078,0.85217 2.34099,1.37238 0.24885,0.24885 1.41423,1.91747 1.50575,2.15597 0.0155,0.0403 0.14993,0.0951 0.31921,0.13003 1.00233,0.20699 2.07598,0.76772 2.79147,1.4579 1.1582,1.11723 1.76868,2.5405 1.92072,4.47796 0.095,1.20995 -0.046,2.3831 -0.42123,3.50528 -0.43806,1.31019 -0.87039,2.05023 -1.6198,2.77267 -1.15088,1.10945 -2.52859,1.62711 -4.33234,1.62786 l -0.67799,2.6e-4 -0.16064,0.16064 c -0.12401,0.124 -0.16064,0.19997 -0.16064,0.33308 0,0.22416 0.11053,0.43304 0.27247,0.5149 0.31377,0.15861 1.53795,0.12796 2.44377,-0.0612 1.33364,-0.2785 2.55909,-0.93569 3.4878,-1.87044 l 0.35359,-0.35589 0.23954,0.4859 c 0.3212,0.65153 0.4799,1.21425 0.51307,1.81921 0.0977,1.78262 -0.88942,3.28108 -2.53431,3.847 -0.26444,0.091 -0.64032,0.29235 -0.68716,0.36813 -0.0146,0.0237 0.0683,0.29795 0.18419,0.60952 0.37396,1.00505 0.44198,1.43608 0.33585,2.12815 -0.0883,0.57608 -0.23503,0.87035 -0.60763,1.2189 -0.91866,0.85935 -2.57015,1.15494 -3.90887,0.69961 -1.13358,-0.38556 -1.89161,-1.15439 -2.25854,-2.29074 -0.11559,-0.35795 -0.24329,-1.06109 -0.24355,-1.34092 -2.6e-4,-0.33675 -0.27533,-0.64377 -0.576252,-0.64328 -0.17013,2.7e-4 -0.414962,0.17537 -0.487297,0.3485 -0.122076,0.29216 0.04416,1.38536 0.333963,2.19618 0.519616,1.45383 1.684496,2.48885 3.247986,2.88591 0.2753,0.0699 0.31075,0.0904 0.24731,0.14307 -0.0407,0.0338 -0.22641,0.30701 -0.41263,0.60713 -0.36471,0.58779 -0.66719,0.99134 -0.90452,1.20678 -0.47094,0.42748 -1.08167,0.68576 -1.92066,0.81224 -0.489611,0.0738 -0.485912,0.0737 -0.97338,0.0169 z M 43.556116,229.962 c 0.28425,-0.0316 0.34276,-0.0554 0.46066,-0.18731 0.18963,-0.21223 0.18841,-0.48155 -0.003,-0.67301 -0.076,-0.076 -0.16632,-0.13984 -0.2008,-0.14195 -0.0345,-0.002 -0.38161,-0.008 -0.7714,-0.0136 -0.79716,-0.011 -1.14675,-0.0805 -1.71697,-0.3414 -1.07783,-0.49322 -1.86168,-1.44694 -2.29867,-2.79686 -0.14694,-0.45392 -0.26742,-0.57738 -0.56188,-0.57579 -0.29039,0.002 -0.50153,0.21071 -0.50153,0.49678 0,0.40068 0.58207,1.67519 1.04661,2.29168 1.06701,1.41603 2.76181,2.13965 4.54703,1.94143 z"
         style="opacity:1;vector-effect:none;fill:#ffffff;fill-opacity:1;stroke:none;stroke-width:0.17857143;stroke-linecap:round;stroke-linejoin:miter;stroke-miterlimit:4;stroke-dasharray:none;stroke-dashoffset:0;stroke-opacity:1" />
      <text
         transform="scale(0.98849481,1.0116391)"
         id="text1006-8-8"
         y="260.16739"
         x="13.933199"
         style="font-style:normal;font-variant:normal;font-weight:normal;font-stretch:normal;font-size:3.37881517px;line-height:1.25;font-family:'The Northern Block';-inkscape-font-specification:'The Northern Block';letter-spacing:0px;word-spacing:0px;fill:#000000;fill-opacity:1;stroke:#ffffff;stroke-width:0.09888135;stroke-miterlimit:4;stroke-dasharray:none;stroke-opacity:1"
         xml:space="preserve"><tspan
           style="fill:#ffffff;fill-opacity:1;stroke:#ffffff;stroke-width:0.09888135;stroke-miterlimit:4;stroke-dasharray:none;stroke-opacity:1"
           y="260.16739"
           x="13.933199"
           id="tspan1004-6-3"
           sodipodi:role="line">CÁNCER DE  CEREBRO</tspan></text>
    </g>
  </g>
</svg>
